/* XPM */
static char *_3[] = {
/* columns rows colors chars-per-pixel */
"64 64 201 2 ",
"   c #020202",
".  c #050509",
"X  c #06080F",
"o  c #0A0A0A",
"O  c #060713",
"+  c #0D0216",
"@  c #060A12",
"#  c #080B13",
"$  c #0C071B",
"%  c #060E1A",
"&  c #0B0C1C",
"*  c #110017",
"=  c #14021B",
"-  c #10081E",
";  c #07101D",
":  c #0B101E",
">  c #141414",
",  c #1B1B1B",
"<  c #0D0E22",
"1  c #0D0E29",
"2  c #150420",
"3  c #180321",
"4  c #120A23",
"5  c #160728",
"6  c #1C052B",
"7  c #150B2A",
"8  c #190B2C",
"9  c #061221",
"0  c #0D1224",
"q  c #0E132A",
"w  c #0D192C",
"e  c #1D0632",
"r  c #1C0B34",
"t  c #180D36",
"y  c #121233",
"u  c #151837",
"i  c #1C123A",
"p  c #23012D",
"a  c #260333",
"s  c #290235",
"d  c #250A37",
"f  c #27053A",
"g  c #2C043B",
"h  c #210B3B",
"j  c #29083D",
"k  c #0E293D",
"l  c #14203D",
"z  c gray18",
"x  c #1D1543",
"c  c #1A1C44",
"v  c #290740",
"b  c #240B42",
"n  c #2B0A44",
"m  c #2C0B4A",
"M  c #310546",
"N  c #34064B",
"B  c #35084E",
"V  c #231046",
"C  c #23184A",
"Z  c #350750",
"A  c #3E0554",
"S  c #350A52",
"D  c #390956",
"F  c #3B0759",
"G  c #3A0B5B",
"H  c #2C1254",
"J  c #1A254A",
"K  c #1A2F4E",
"L  c #103046",
"P  c #14334D",
"I  c #173451",
"U  c #1C355A",
"Y  c #193E5A",
"T  c #242958",
"R  c #3C0F64",
"E  c #351764",
"W  c #3A1B6E",
"Q  c #2E286A",
"!  c #243965",
"~  c #2E356D",
"^  c #293B6A",
"/  c #352A72",
"(  c #3A2579",
")  c #343875",
"_  c #410656",
"`  c #43065B",
"'  c #44085C",
"]  c #460762",
"[  c #4C0364",
"{  c #450963",
"}  c #490967",
"|  c #4D0469",
" . c #480B6A",
".. c #52056C",
"X. c #540572",
"o. c #5A0275",
"O. c #540874",
"+. c #5D037B",
"@. c #56087A",
"#. c #441574",
"$. c #4D1074",
"%. c #461A7B",
"&. c #52127B",
"*. c #61037E",
"=. c #40237D",
"-. c #17435E",
";. c #1B4668",
":. c #294977",
">. c #245278",
",. c #5B0B83",
"<. c #4C1C85",
"1. c #4D1E89",
"2. c #541683",
"3. c #59198D",
"4. c #5C1B92",
"5. c #630483",
"6. c #66058A",
"7. c #6C048D",
"8. c #660C8D",
"9. c #6E0591",
"0. c #6D0C96",
"q. c #6F0D9B",
"w. c #730495",
"e. c #76059A",
"r. c #7A049D",
"t. c #621495",
"y. c #681599",
"u. c #6B169D",
"i. c #7D04A2",
"p. c #7A0AA5",
"a. c #7D0BA9",
"s. c #7612A6",
"d. c #7B14AB",
"f. c #85039D",
"g. c #88029F",
"h. c #8303A5",
"j. c #8B03A3",
"k. c #8604AA",
"l. c #8B03AD",
"z. c #810AAB",
"x. c #9307A9",
"c. c #9303AC",
"v. c #9903AF",
"b. c #8C04B1",
"n. c #8A0BB3",
"m. c #8A0FB8",
"M. c #9403B3",
"N. c #9B03B4",
"B. c #9604B9",
"V. c #9B04BB",
"C. c #930BBB",
"Z. c #8413B3",
"A. c #8812B8",
"S. c #9013BD",
"D. c #A103B5",
"F. c #A203BD",
"G. c #9C0DC3",
"H. c #9910C5",
"J. c #A603C2",
"K. c #AB03C5",
"L. c #A20AC5",
"P. c #AD05CA",
"I. c #A30CC9",
"U. c #AB0BCC",
"Y. c #B103C7",
"T. c #B404CB",
"R. c #BA03CE",
"E. c #B009CE",
"W. c #AF0ED3",
"Q. c #B607D1",
"!. c #BC04D2",
"~. c #B50CD3",
"^. c #BB0AD5",
"/. c #BD0DD9",
"(. c #B310D3",
"). c #C304D6",
"_. c #C406D7",
"`. c #C604D9",
"'. c #CB04DB",
"]. c #C40CDC",
"[. c #CB09DD",
"{. c #D103DE",
"}. c #CB0EE2",
"|. c #D404E2",
" X c #DA04E6",
".X c #D40CE4",
"XX c #D80CE6",
"oX c #DE04E9",
"OX c #DE0BEA",
"+X c #CA10E1",
"@X c #D310E5",
"#X c #D912E7",
"$X c #E304ED",
"%X c #E807EF",
"&X c #E30DEC",
"*X c #E212ED",
"=X c #E914EF",
"-X c #E606F0",
";X c #EA04F1",
":X c #E90CF0",
">X c #E912F0",
/* pixels */
"^.!.!.!.R.).).]._._._.'.'.'.[..X{.|.|.|.|. XOXOX X X X$X$X$X&X$X$X$X$X$X$X%X&X$X$X$X$X{.$X&X{.XX X X{.{.[.@X'.'.'._._._.[.].).).",
"/.^.!.!.).)._.].].`.'.'.'.'.{..X|.|. X X XoXOXOX$X$X$X$X$X%X=X$X;X;X$X;X;X%X%X$X$X$X$X$X$X*X$X{. X{. X X.X.X{.'.{.'.[.`.+X_.).).",
"!./._._.).)._.`.}.[.`.{.[.{.{.@XXX X X XoX$X X&X$X$X$X$X%X;X=X;X;X$X;X;X;X>X:X-X$X$X%X$X$X&X$X$X X X X X#X|.{.{.'.'.[.+X]._._._.",
"!.^./.!.)._._._.[.+X`.'.'.{.{.|.#X|. X XoXoX$X*X$X$X;X$X;X;X=X;X;X;X;X;X;X>X%X-X%X%X$X$X&XXX X X X X X.X.X{.'.'.'.'.[.+X`._.).).",
"J.K.K.K.K.Y.Y.T.T.T.R.R.R.).R.).)._.'.'.'.'.'.[.{.{.{.{.{.{.{.{.|.{.{.{.|.|.|.{.{.{.{.{.'.'.'.'.'._._._.).).!.R.R.R.Q.T.Y.Y.Y.Y.",
"p 6 p 6 p p a d a a p p p p p a g g s s s s a s a a g g g g g s s s s s s g g g g s s s s s s s s s g g s p p p p p p p p s p p ",
"        . . .                       .                   . . . .             o o . .             .       .             .   . o   ",
"  o   .             .                             .             .   .   .               .                                     . ",
"      .             o                         o .               .   .   .             .   o               . .   .               ",
"o               .         .               .   o                   . o                   o   .           . o     .               ",
"  . .                 . . . .             .     .                                     . .   .               .     .             ",
".                                             . . .           . o o   o     .           .                         .             ",
"                                      .                     .                           o                                       ",
"          .   .                 o                   .     .               . .   .                   .                 .       . ",
"        .                           .                 . >                 .   .                                         o       ",
"            .   .               .                   . .     .                 o .               o   .                   .     . ",
"          .                       . .                   .   .             .   . . .   o o     .   o                             ",
"                                                      . o o                     . .   . .             .                 . .   . ",
"    .                                       .                     . o           . .   .   .   o     o                           ",
"      .             .     .                 .   .                       .             . . .   o               .   .             ",
"  .   o                                 o . . .   o             .   ,                   .                         o   o         ",
".                     .   .                 . . .                 o .   .             . .     o             , o     .           ",
".     o             .   .                 . . . .     o           o                   .   . .               .     o             ",
".   .                                   . z                       o                                                 .           ",
"  o     .   . . .                         >           .                   .     o                 o   .                         ",
"          . .     .               .   .                 .   o                 .   .                     .             .   . .   ",
"                                .     o   .         .     o .               o                   . .                       .     ",
"          .   . .                 .   o               o .         ,       . . . .               .     .                   .     ",
"                                . .             o     .           .         .     .                 o o                         ",
"                                        .       .                     .               . .             .                 .       ",
"    .   .                                 o                     . . .                 o o                     . > .     .       ",
"                      . .   .                 .   .             . .   .     .         .               .         .               ",
".                   .   >                   .   .                 . .                     .   .                 o               ",
"                        > .               >                     .       .                             o . o . o o               ",
"                                                                .       .                                                       ",
"                                                      .                         .                 .                             ",
"            .                   .   .                     o                   . .                 . .   .                     . ",
"                  .                 .                 .                         o                   . .                         ",
"                              . .     .                   .                   .                 .   o           .         o     ",
"                                  . . .                   .               . .   o                     . .                       ",
"                          .                       .               .                   . . .   .                                 ",
"= = - = * * * + = = = = = = = = * * * = = = 3 3 = = = = = = = = = 3 = 3 3 = = = = + = 2 = = = = * + = = = = = = = = = + + + + + ",
"f.g.j.g.j.g.j.j.j.l.j.c.x.c.c.c.c.N.v.v.N.N.N.N.D.D.D.D.D.N.D.F.D.D.D.F.D.D.D.N.D.N.N.D.V.N.N.N.v.c.v.c.c.c.c.x.j.j.j.j.j.f.f.f.",
"P.U.(.T.Y.Y.T.T.T./.!.Q.!.!.!.!.]./.).)._.`.`.+X'.'._.'.'.'.}.'.{.'.[.{.'.}.'.'.'.'.`.'.}._._.).).!.!./.^.!.Q.R.R.T.~.E.K.K.K.F.",
"U.~.T.T.Y.T.T.Q.~.~.Q.Q.R.R.!.^.!.).).).!.`._.+X'.)._.`.'.`.+X'.'.'.'.'.'.[.`.'.`.`.`.)._.]._.!.!.!.!.!./.Q.Q.Q.Q.P.Q.W.P.K.K.K.",
"~.T.U.Y.R.P.T.Q.~.R.R.R.R.!.!./.^.!.!.!._.!.].].`.).)._.`.`.+X`.`.`._.)._.].]._.).).`.)._.]._.!.!.!.!.!.^.Q.Q.T.T.Q.P.P.W.K.K.J.",
"U.P.Y.K.K.P.P.~.T.T.Y.R.T.T.~.^.R.!.R.!.!.!._.^.).!.).`.).`.]._.).).).).`.]._._.).).).!.!.].!.!.!.!.Q.R.Q.^.T.Y.P.P.K.P.U.I.L.J.",
"J.J.J.J.K.K.W.U.K.K.K.K.P.P.~.T.T.Y.T.T.R.R./.Q.R.R.R.R.!.!.].!.R.).R.).).!._.!.R.R.R.R.R.^.Q.R.Y.Y.Y.P.Y.Q.P.K.K.J.J.L.K.U.J.G.",
"F.D.D.F.F.L.U.J.J.F.J.J.J.K.~.K.K.K.K.Y.Y.T.~.Y.Y.Y.T.T.!.Q.^.R.T.T.R.T.R.Q./.Q.T.R.T.Y.T.T.Q.Y.Y.K.K.K.K.U.U.J.F.F.F.F.D.J.L.V.",
"B.M.N.M.N.G.C.N.B.N.N.B.N.I.G.F.F.D.F.F.J.P.U.J.J.J.J.J.K.P.E.K.K.K.J.K.K.E.E.Y.K.K.F.J.J.J.~.J.J.F.F.F.F.F.I.V.N.N.N.N.N.B.G.B.",
"k.k.k.l.C.C.c.l.l.l.l.b.b.H.M.M.M.b.M.M.B.G.V.B.M.B.V.V.B.G.J.G.V.V.V.V.V.F.U.V.N.V.B.V.B.B.L.B.V.M.N.M.c.M.B.C.M.b.l.l.l.l.b.S.",
"r.i.i.i.m.h.r.r.f.i.h.h.n.b.h.i.h.h.h.h.k.H.k.k.k.k.k.k.k.G.C.b.b.l.l.l.b.b.H.l.b.l.l.l.b.l.C.C.l.k.h.h.k.k.k.S.h.h.h.r.f.r.r.z.",
"7.7.9.d.w.9.6.6.7.7.0.w.A.0.w.7.7.7.w.w.p.Z.e.e.e.w.w.w.e.n.a.e.e.r.e.e.r.r.S.r.r.e.e.e.r.r.z.A.e.w.w.w.w.w.e.z.a.w.9.9.7.7.7.w.",
"+.+.8.t.,.o.o.o.o.o.,.0.0.*.+.+.o.o.*.5.q.0.5.+.*.5.*.5.6.s.7.6.5.5.5.5.6.6.Z.6.5.5.5.5.5.5.8.d.6.5.*.+.*.*.5.6.s.5.5.+.+.+.+.+.",
" .O.4.O.[ [ [ ` [ | O.y.....| [ [ [ | O.y.O.O.......[ ..X.u.@.X.........X.@.u.@.o...[ ......@.t.,.X.| ..[ ....X.3.,.X.| | | [ | ",
"{ &.$.' A A A A A ' &.&.{ _ _ _ A A ' { 4.{ ' ' ` _ ` ` ] 4. .] ` ' ' ' { [ 3.O.] ` ` ` ' ' [ &.2.[ ' ` ` ` ` ]  .3.} F ` A A A ",
"R %.S N M M M M M S <.F B M N M n M Z R %.D B N M B B S F 1.F Z A N N B B D #.#.G B N B B N D G <.D B N N N B B D <.R B M M M N ",
"W m g a f a f d g H W b f a a a f j n W H b f a f a g n m =.m v f s f f g m E W M j f f f g g m ( H n j f f f j b m ( m v j f j ",
"H r 6 5 6 6 6 e h W V e 6 6 6 6 6 d i / h e 6 6 6 5 e r V / h r 6 6 6 6 6 h V / h r e 6 6 6 e r E T h e p 8 6 6 e r / V h e e 6 ",
"t 7 5 5 8 8 8 r x Q t 5 5 5 4 8 8 t x ) t 8 5 7 5 5 8 i x ) i 8 8 5 7 4 8 i x ) i t 8 5 5 7 8 i C ~ i i 8 8 5 5 5 t x ~ i t 8 8 ",
"5 + 2 $ - - 4 4 T c 4 $ $ $ $ - < 7 J T 7 4 $ $ $ $ - 7 c U 7 < $ $ $ $ $ 7 y :.y 4 - $ - - - 4 y ^ y 4 4 $ - $ 2 < 7 ^ y 7 4 - ",
"& $ O $ $ & < y ^ 1 < @ @ $ & $ < q ^ u < $ O & $ $ & 0 J U q < % $ $ & & < 1 :.q 0 & $ $ O & $ q ! u 0 & & & $ $ % 0 l U 0 0 & ",
"& & % & & : 0 K K q 0 & & : & & 0 w >.w 0 : & & ; & 0 w I I w 0 & & & : : q w >.w 0 & : & & : 0 w P I w 0 & : & & & 0 w ;.w 0 ; ",
"@ X O @ @ @ 9 ! 9 % @ X X X X X @ w Y ; # @ X X o X O % P k # @ @ X X @ @ @ 9 ;.9 # @ X X @ @ X ; w -.: @ X @ @ @ @ # ; k L # X "
};
