/* XPM */
static char *_0[] = {
/* columns rows colors chars-per-pixel */
"64 64 145 2 ",
"   c #06021B",
".  c #0A021D",
"X  c #11011E",
"o  c #060123",
"O  c #0C0122",
"+  c #06012C",
"@  c #0D022B",
"#  c #140224",
"$  c #190225",
"%  c #14022A",
"&  c #1B022B",
"*  c #0C0136",
"=  c #0D013A",
"-  c #130133",
";  c #1D0233",
":  c #140239",
">  c #1B0239",
",  c #23022E",
"<  c #28032F",
"1  c #230233",
"2  c #2B0234",
"3  c #25023C",
"4  c #2C023C",
"5  c #300237",
"6  c #32023C",
"7  c #3B023C",
"8  c #40023F",
"9  c #0E0143",
"0  c #0F014B",
"q  c #130144",
"w  c #1B0144",
"e  c #13014C",
"r  c #1B014C",
"t  c #130153",
"y  c #1C0152",
"u  c #14015B",
"i  c #1B015A",
"p  c #240244",
"a  c #2B0243",
"s  c #23014B",
"d  c #2C024A",
"f  c #340241",
"g  c #3B0243",
"h  c #33014B",
"j  c #3E034B",
"k  c #230154",
"l  c #2B0251",
"z  c #24015E",
"x  c #2B025A",
"c  c #350253",
"v  c #35015D",
"b  c #3C025E",
"n  c #140264",
"m  c #17016A",
"M  c #190177",
"N  c #1B017D",
"B  c #260164",
"V  c #2C0167",
"C  c #230269",
"Z  c #29026A",
"A  c #350160",
"S  c #3C0262",
"D  c #31016B",
"F  c #230174",
"G  c #2E0076",
"H  c #22027E",
"J  c #2E007B",
"K  c #3B0276",
"L  c #33027B",
"P  c #3B017D",
"I  c #430144",
"U  c #44024C",
"Y  c #4C014C",
"T  c #50004F",
"R  c #460251",
"E  c #4C0254",
"W  c #47025A",
"Q  c #4D0259",
"!  c #540054",
"~  c #55025A",
"^  c #5A005C",
"/  c #4A0466",
"(  c #43026E",
")  c #4D026B",
"_  c #550263",
"`  c #5D0262",
"'  c #52026B",
"]  c #5B016B",
"[  c #440173",
"{  c #4C0272",
"}  c #440178",
"|  c #4D017E",
" . c #550175",
".. c #590173",
"X. c #54017C",
"o. c #5F017E",
"O. c #620063",
"+. c #66006A",
"@. c #6A006D",
"#. c #750461",
"$. c #74016E",
"%. c #630172",
"&. c #6E0073",
"*. c #63007C",
"=. c #6B0078",
"-. c #710073",
";. c #7A0073",
":. c #82075C",
">. c #890661",
",. c #8F0171",
"<. c #960075",
"1. c #A4046D",
"2. c #A70470",
"3. c #1D0184",
"4. c #1E0189",
"5. c #240185",
"6. c #2B0184",
"7. c #21018D",
"8. c #2C0089",
"9. c #330182",
"0. c #3D0187",
"q. c #35008D",
"w. c #3B018B",
"e. c #230196",
"r. c #2A0094",
"t. c #24009B",
"y. c #29009D",
"u. c #320094",
"i. c #3E0096",
"p. c #35009D",
"a. c #3C0099",
"s. c #2500A4",
"d. c #2D00A1",
"f. c #2600A8",
"g. c #2800A8",
"h. c #3300A0",
"j. c #440184",
"k. c #4B0181",
"l. c #47008F",
"z. c #4B008D",
"x. c #550086",
"c. c #5A0083",
"v. c #51008A",
"b. c #430093",
"n. c #400098",
/* pixels */
"# U E E U 6 2 1 < # f Q Q U g 5 5 g 6 = Z S E g 6 2 7 j # j g 2 6 I Y I 6 # f g 5 5 7 U E E f ; Q Q U I 5 < < < . E Q E U 6 2 6 ",
"& +.-.&.O.! I 7 7 & Q -.-.+.~ I I ^ E e a.c.&.^ Y g ! ~ % O.E 8 Y ^ @.O.T $ E ^ Y I ~ +.-.&.Q 6 &.&.@.~ Y 7 7 7 # @.-.-.` Y I T ",
"& +.-.&.O.! 8 7 7 $ E -.$.+.~ I I ^ E e n.c.@.^ Y I ! ` $ ` ! 8 Y ^ @.O.E $ Q ^ I I ~ +.-.-.! 4 -.-.&.^ U 8 7 7 O &.$.-.O.T I Y ",
"& +.-.-.O.! 8 7 7 & E -.-.@.^ I I ^ E t n.c.&.^ U I ! ~ $ O.! 8 Y ^ @.` T $ E ^ I I ! @.-.-.Q 4 -.-.$.^ Y 7 7 7 # @.-.@.O.Y I T ",
"& +.&.&.O.! I 7 7 $ W -.-.+.~ I I ^ E t i.c.@.^ Y 8 ~ ~ $ ` ! 8 U ^ @.O.E $ Q ^ I I ~ O.-.@.E 4 -.-.@.~ Y 7 7 6 # @.&.&.O.T I Y ",
". ; 1 > ; $ # $ # . & 1 1 ; & $ $ ; $ o : > ; & $ # % ;   ; ; % $ & < ; $ . % & % $ , , 1 , $ # 1 1 ; ; $ $ $ $   , 1 ; & % $ $ ",
"# / P 8.6.[ ] ` O.4 j } 8.8.P ' ` ` U % l F 7.7.4.e.4.3.@ ~ O.O.O.O.` { 9.9 < U ~ ` ] ` ~ Y < 3 } 9.7.P { ` O._ O ' 9.8.9.{ ] ` ",
"# ..l.y.a.v.=.-.&.f W v.p.p.z.*.-.&.Q & A 8.s.f.f.f.f.e.@ @.-.-.&.$.&.c.b.e 5 ! @.-.-.-.+.! 2 a c.a.h.b.c.@.-.@.# o.b.d.a.x.&.&.",
"# ..l.d.a.x.=.-.-.6 W z.p.p.z.*.-.-.Q & A 8.s.f.f.f.f.t.% @.-.&.&.-.&.c.i.e 2 ! +.&.&.&.+.! 2 4 c.a.d.b.c.&.&.+.O c.b.h.a.x.&.-.",
"# ..l.y.a.z.=.-.&.f W z.p.p.z.*.-.-.Q & v 8.f.g.f.f.f.e.@ @.-.&.-.-.&.c.i.e 5 ~ @.$.-.-.+.! 2 4 x.a.h.b.o.&.-.&.# *.b.d.a.x.=.&.",
"# ' j.r.q.k.] +.+.4 R | q.r.j...+.+.E % x H e.e.e.e.t.7.% ` +.+.+.+.@. .w.9 2 E ` +.@.+.` Y < 4 X.q.e.0. .+.+.` O ..0.e.q.| %.+.",
"  # * * = * - * : o O - * = * - - - @ . # - ; - - - @ @   < < , & , & & ; o # & & & & $ $ $ # . % ; ; ; & & & $   % @ = = - - - ",
"# h G e.s.s.t.s.s.t 2 D 8.s.s.s.s.t.N $ Y ` @.@.@.+.~ 7 $ 1.1.#.&.@.$.&.&.2 ~ &.@.O.! I 8 ^ U $ U ` @.@.@.+.~ 7 o c J t.s.s.t.f.",
"% h G y.f.f.f.f.s.t 3 D r.f.f.f.f.f.N % Y O.-.;.&.$.^ g $ 2.,.;.-.&.-.-.&.4 ~ &.&.@.^ I I ^ E % Y O.&.;.-.@.^ I . c L t.f.f.f.f.",
"& h G y.f.f.f.f.f.t 3 D r.f.f.f.f.f.N & Y O.&.-.&.@.~ I $ 2.<.;.-.-.-.-.&.5 _ &.-.+.~ I I ^ ! $ Y O.&.-.;.@.~ I   c L f.f.f.f.f.",
"$ h G y.f.f.f.f.s.u 3 D r.f.f.f.f.f.N & Y ` &.-.-.$.~ 7 X 1.<.;.&.-.-.-.-.5 Q $.-.@.~ I I ^ Y & T O.-.-.$.@.~ I o c L t.f.f.f.f.",
"# p B H 4.4.4.3.3.e ; x F 3.5.4.3.4.n $ g R ^ ^ ~ ~ U 6 X :.#.` ` ^ ^ ^ ^ 1 U ^ ^ ! U 6 7 U g # g E ~ ^ ^ ~ U 7   a C N 4.5.4.3.",
". & , 1 & $ # # # . # 1 1 & & $ # & % o : ; , & $ X & &   , $ # # & , & $   % & $ $ $ & , 1 % O , , , & $ X X X   , , , & $ # $ ",
"& +.-.-.O.! I 7 7 & E -.-.@.~ I I ^ E r n.c.@.^ Y 8 ~ O.$ ` ~ I Y ^ $.O.E $ ~ ^ I I ^ @.-.-.~ 4 ;.-.@.^ Y 7 7 7 O &.-.-.O.T g ! ",
"& +.-.-.O.! g 7 7 & E -.-.@.~ I I ^ R t n.c.@.` Y 8 ! ~ $ O.! 8 Y ^ @.O.E $ E ~ U I ~ +.-.-.E 4 -.-.@.^ U 7 7 7 # &.-.-.O.T I Y ",
"& +.-.-.+.! 8 7 7 & Q -.$.+.^ U I ^ E t n.c.@.^ Y I ! ` $ O.! I U ^ @.O.E $ ! ^ I Y ! @.-.-.E a -.-.&.^ U 8 7 7 # -.-.&.O.T I Y ",
"& +.-.-.O.! 8 7 7 $ Q &.-.+.~ I I ~ Y e n.c.@.^ Y g ! ~ $ ` ! g Y ^ $.O.Y $ Q ^ I I ! +.-.-.! 4 -.-.@.^ Y 7 7 7 O @.-.-.O.Y I T ",
"# j U R g 6 2 < , # 4 R Y U f 2 2 g 4 = B v U g 2 < 6 g O g 6 2 2 f U g 4 X f f 2 2 7 U R E 6 & W R U g 2 , , , . U R U g 4 , 6 ",
". a k i i l f g g & 3 d u i l h g g 2 # > t u u u n u t O f g g g g g d k * $ 1 f g g f 6 2 $ & d k u k h g g f . h k i i d g g ",
"# ..l.h.a.v.=.-.-.f W v.p.h.l.*.&.-.~ % A 8.s.f.f.g.f.t.- @.-.-.-.-.&.c.n.e 6 ! +.-.-.-.@.! 2 a x.i.h.n.c.=.&.&.# o.b.d.n.x.=.-.",
"# ..l.d.a.v.=.&.&.f W z.p.h.z.*.&.-.Q & A 8.s.g.f.f.f.e.@ @.-.-.-.-.-.c.i.e 4 ! +.-.-.-.@.! 2 4 x.i.d.b.*.&.&.@.O o.b.d.i.x.=.-.",
"# ..l.d.a.v.&.-.&.f W v.p.p.z.*.-.-.Q & v 8.f.f.f.f.f.e.@ @.-.-.-.-.-.c.n.e 6 ! +.-.-.-.+.! 5 4 c.i.h.b.c.-.-.@.# o.b.y.n.x.=.-.",
"# ..l.d.p.x.=.-.-.6 Q z.p.p.z.*.&.-.Q & v 6.s.f.f.f.f.e.% +.$.-.-.-.&.c.i.e 2 ! +.$.-.-.+.T 5 2 x.i.d.b.c.&.&.@.# o.b.y.i.x.=.-.",
". 3 w e q p 3 3 3 # ; w e e w 3 4 4 ; o - : 0 e 0 0 e 0   3 2 3 4 2 4 3 w + # & 1 4 4 3 1 ; O # p e e w 3 3 3 2   3 w e r w 4 4 ",
"# 3 z N N N N 3.3.9 ; k C N N 3.3.3.n # f R Q ~ ~ Q I 2 O E ~ ~ Y g 2 2 2 X g ~ ~ E I 5 6 j g # s C 3.3.3.N N N . p z N 3.N 3.N ",
"% h L t.f.f.f.f.f.u 3 V r.g.g.f.f.f.N & Y O.-.-.-.@.~ I # +.&.-.O.E g 7 7 $ ~ -.$.@.^ I I ^ R & v 8.f.f.f.f.s.y.o c J y.f.f.f.f.",
"# h G y.g.f.f.f.f.t 3 D r.g.f.f.f.f.N % Y O.&.-.-.@.~ 8 # +.-.-.O.! g 7 7 $ ~ -.-.@.~ I I ^ R & A 6.s.f.f.f.f.s.o c J y.f.f.f.f.",
"# h G y.f.f.f.f.f.t 3 D r.f.f.f.f.f.N & Y O.&.&.&.@.~ I # @.&.&.O.! 8 7 7 # ~ -.-.@.~ I I ^ R & A 8.f.f.s.g.f.y.o c J y.f.f.f.f.",
"& h G y.s.s.y.s.s.t 3 D r.s.s.d.s.s.N % Y ` $.@.#.@.~ g O @.&.@.` Y g 7 7 $ ~ @.@.+.! I I ~ R % v 6.s.y.s.s.s.t.o h J t.s.s.y.s.",
"    o + + + + + + o . o + + + + + + +   . # # # # # O .   # $ # X . . . .   O $ # # # . X O #   o + + + + + + o   . o + + o + + ",
"# j R R g 6 2 , , # 6 U U U 6 5 2 7 4 = Z c U j 2 2 6 g O g 6 < 5 g U I 4 # 4 7 2 2 6 I Y R 6 & R R U g 5 < < , . R Q U g 6 2 4 ",
"& +.-.-.O.! I 7 7 & E -.$.@.~ I I ^ E t i.c.@.^ Y I ! ~ $ ` ~ 8 U ^ @.O.Y $ ~ ~ Y I ~ @.-.-.! a -.-.$.^ U 7 7 7 O &.-.&.O.T I Y ",
"& +.-.&.O.! I 7 7 & Q -.-.+.~ I I ^ E e i.x.@.^ Y g ! ` $ ` ! I Y ^ @.O.T $ Q ^ I I ! @.-.-.Q 4 -.-.@.^ Y 8 7 5 # &.-.@.O.E I Y ",
"& +.-.-.O.! I 7 7 & Q -.-.+.^ I I ^ E e i.c.@.^ Y I E ^ $ O.E I Y ^ $.O.Y $ Q ^ I I ~ +.-.-.Q 4 -.-.&.^ U 8 7 7 . &.-.$.O.T I Y ",
"& +.-.-.O.! 8 7 7 $ Q -.-.+.~ U I ~ E t b.c.@.^ Y 8 ~ ^ $ ` ~ I Y ^ @.O.Y # ~ ~ I I ! @.-.-.Q 4 -.-.@.^ Y 8 7 7 # &.-.-.O.T I Y ",
". 1 1 1 ; & % # # . & 1 1 ; & $ $ & $ o : > 1 ; % % & ; . & & $ $ & 1 1 & . & & $ $ & 1 1 1 $ # 1 1 ; 1 $ # $ #   1 1 1 ; & # & ",
"# W K 5.J [ _ ` ^ 3 j } 6.6.K / ` ` j $ l F 3.4.4.4.4.N @ ~ ` ` ` ^ ` ( L = 1 U ~ ` ^ _ ~ I , 1 [ L 5.L ) _ _ ~ O / L 5.L ( _ ^ ",
"# ..l.d.a.x.=.&.-.f W v.p.h.l.*.&.-.Q % v 8.f.f.f.f.f.t.% @.$.&.-.-.&.c.i.e 2 ! +.-.-.-.+.! 2 4 c.a.d.b.o.&.-.@.# o.b.d.i.x.=.-.",
"# ..l.d.a.z.=.&.-.6 W v.p.p.z.*.-.-.Q & A 8.s.f.f.f.f.t.@ @.&.&.-.-.&.c.i.e 5 ~ @.-.-.-.+.~ 2 4 c.a.h.b.c.&.-.@.O *.b.d.i.x.=.-.",
"#  .l.d.p.v.=.-.&.4 W z.p.h.z.*.-.-.Q $ A 6.f.f.g.g.f.e.% @.-.&.-.-.&.c.n.e 6 ! +.-.-.-.@.! 2 4 c.a.h.b.c.-.-.@.# *.b.y.i.x.=.-.",
"# ) j.r.q.k.%.@.&.6 W k.u.r.k...%.+.E & v 6.e.t.t.t.t.7.@ O.@.@.&.@.@.X.w.e 2 Y ` @.@.@.O.Y 2 4 X.u.y.j.X.+.@.O.O X.j.r.u.X.%.@.",
". % - * * * - % - o # - * * * * ; : @   % % - - - - - @   < < ; & & ; & - o $ & & & & # $ $ O o % * = * @ - : -   % * * * * - - ",
"# d G e.s.t.s.s.s.0 3 V 8.s.s.t.s.t.M & U ` @.&.&.O.~ 7 X 1.,.$.&.@.@.&.@.2 Q @.@.+.! I I ~ R $ A 6.t.s.s.s.t.e.o c J e.y.y.s.s.",
"& h G y.f.f.f.f.f.t a D r.f.f.f.f.f.N & Y ` &.-.-.@.~ I X 2.1.;.-.-.-.-.-.2 ~ $.$.@.^ I I ^ R & v 8.f.f.f.f.f.t.o c J s.g.f.f.f.",
"% h G y.f.f.f.f.f.t 3 D r.f.f.f.f.f.N & Y O.&.-.-.@.~ g $ 2.<.;.-.-.-.-.-.4 ~ -.$.@.~ U U ^ R % v 8.f.f.f.f.f.t.O c L s.f.f.f.f.",
"# h G y.f.f.g.s.f.t 3 D r.f.f.f.f.f.M & Y ` @.-.-.@.^ I X 2.<.;.-.-.-.-.-.4 ~ -.&.+.~ I I ^ R $ v 8.f.f.f.f.f.t.o c J t.f.f.f.f.",
"# p Z 5.7.e.7.7.4.0 > x H 4.e.4.7.7.m % I ! ` O.` ~ Y 6 # >.:.O.` ` ` ` ` 1 R ^ ` ~ U 7 7 Y j $ l F 7.4.7.7.7.3.O d Z 4.e.4.7.7.",
". & & & $ $ X . . . $ & & & # # X $ $ o - - & & # # $ $   & $ X $ $ & & # . # $ # # $ & & , $ O & & & $ # . X X   ; & & $ # X # ",
"& +.-.-.O.! I 7 7 $ Q -.-.@.~ I U ^ E e i.c.&.^ Y I ~ ^ $ ` ! g Y ^ @.O.! $ ~ ~ I I ! @.-.-.Q 4 -.-.&.^ Y 8 7 7 # &.-.-.` T I Y ",
"& +.-.&.O.~ 8 7 7 & E -.-.+.~ U I ~ E t i.c.@.O.I 8 ! ~ $ ` ~ I Y ^ @.O.Y $ ! ^ I I ~ @.-.-.E f -.-.&.^ Y 7 7 5 X @.-.@.O.T I Y ",
"& +.-.&.O.! I 7 7 & ! -.-.+.^ I I ~ E e i.c.@.^ Y 8 ! ` $ ` ! I Y ^ @.O.E $ ! ^ I I ! +.-.-.E 4 -.-.&.^ Y 7 7 7 # @.;.@.O.T I Y ",
"& +.-.@.O.! g 7 7 $ Q -.&.+.~ I U ^ E t i.c.@.~ Y g ! ~ $ ` ! I Y ^ @.O.E $ E ^ I I ~ +.-.-.Q 4 -.&.@.^ U 7 7 7 # &.&.$.` T I T ",
"# U Q Q j 7 2 1 < $ 6 Q E U g 5 2 g 6 = Z b R g 5 2 f g O j 7 2 6 g U U 6 X f g 2 5 7 Y E E 6 & E E E g 5 < < 1 . R W E j 6 2 6 ",
"  a s u y p f f f & 1 s y t s f g f 1 O ; e t u u t u t O 6 f f f f 6 d y + $ 1 6 f f 6 4 , $ & d r t k a f f f . a y t y d 6 f ",
"# ..l.d.a.v.=.-.-.6 W v.p.h.z.*.-.-.Q & A 8.s.f.f.f.f.t.@ @.-.-.-.-.-.c.n.e 5 ~ @.-.-.-.+.~ 2 4 c.a.h.b.c.-.-.@.# o.b.p.i.x.=.-.",
"# ..l.d.a.v.=.-.-.f W v.p.h.z.*.-.-.Q & A 8.s.f.f.g.f.t.% @.-.-.-.-.=.c.n.e 2 ! +.-.-.-.+.! 2 4 c.a.h.b.o.&.-.@.# c.b.d.i.x.=.&.",
"# ..l.d.a.v.=.&.-.6 W z.p.h.z.*.&.-.Q & A 8.s.f.g.f.f.e.@ @.-.-.-.-.-.c.b.e 2 ~ +.-.-.-.+.! 5 a x.a.d.b.c.&.-.+.# *.b.h.i.x.=.-.",
"# ..l.d.p.v.=.&.-.f W v.p.h.z.*.&.-.Q & A 8.f.f.f.f.f.e.% @.-.&.-.-.-.c.i.e 6 ! @.-.-.-.+.! < 4 c.a.d.b.c.&.-.@.O o.b.y.a.x.=.-.",
". 3 s t r p 4 6 6 % ; s r e s a 6 6 < o : q t t 0 u t 0 o 4 f 6 f 6 4 a r @ # , 4 6 6 6 4 2 # % d r t r a 6 4 4 . a r t r p f 6 "
};
