/* XPM */
static char *chip[] = {
/* columns rows colors chars-per-pixel */
"64 64 250 2 ",
"   c black",
".  c #0D030A",
"X  c #15070A",
"o  c #1C030D",
"O  c #1B0B0C",
"+  c #181609",
"@  c #0B0618",
"#  c #140314",
"$  c #1C0415",
"%  c #140B14",
"&  c #1C0A15",
"*  c #15041C",
"=  c #1C051C",
"-  c #150A1C",
";  c #1C091C",
":  c #0C1216",
">  c #181218",
",  c #22050C",
"<  c #24070C",
"1  c #220415",
"2  c #270914",
"3  c #2D0D16",
"4  c #23041B",
"5  c #29011D",
"6  c #220A1C",
"7  c #2A0B1D",
"8  c #27141B",
"9  c #0A390D",
"0  c #0B0827",
"q  c #150422",
"w  c #1D0622",
"e  c #140A24",
"r  c #1B0A23",
"t  c #15042A",
"y  c #1C032B",
"u  c #160A2C",
"i  c #1C0B2B",
"p  c #0F102F",
"a  c #181326",
"s  c #1E132D",
"d  c #1A0833",
"f  c #1C1534",
"g  c #230423",
"h  c #2B0423",
"j  c #220B24",
"k  c #2B0B25",
"l  c #23042B",
"z  c #2B042B",
"x  c #250C2B",
"c  c #2A0D2C",
"v  c #340828",
"b  c #320D2C",
"n  c #231324",
"m  c #2B1225",
"M  c #24122B",
"N  c #2B112C",
"B  c #271929",
"V  c #331328",
"C  c #230533",
"Z  c #250C33",
"A  c #2B0D33",
"S  c #290838",
"D  c #330D33",
"F  c #330A39",
"G  c #241333",
"H  c #2B1233",
"J  c #271738",
"K  c #2C133A",
"L  c #331236",
"P  c #282528",
"I  c #453338",
"U  c #11430A",
"Y  c #11460E",
"T  c #235518",
"R  c #0D6D02",
"E  c #096C08",
"W  c #156C05",
"Q  c #047303",
"!  c #0D7403",
"~  c #0C7C03",
"^  c #0B740B",
"/  c #077A09",
"(  c #127404",
")  c #137C05",
"_  c #12740B",
"`  c #17790A",
"'  c #0D6D11",
"]  c #176E13",
"[  c #0B7613",
"{  c #177615",
"}  c #2B6917",
"|  c #257817",
" . c #234928",
".. c #305330",
"X. c #2F732E",
"o. c #484938",
"O. c #426B3D",
"+. c #310F41",
"@. c #454445",
"#. c #494B4A",
"$. c #4A4751",
"%. c #52744E",
"&. c #647157",
"*. c #616161",
"=. c #6A6663",
"-. c #6E7868",
";. c #148503",
":. c #118D09",
">. c #278E13",
",. c #1DA805",
"<. c #1BB602",
"1. c #24A607",
"2. c #29B804",
"3. c #32BB05",
"4. c #31AC13",
"5. c #298629",
"6. c #36872C",
"7. c #2F8D31",
"8. c #43902D",
"9. c #2AC004",
"0. c #2ED70E",
"q. c #3AEC05",
"w. c #3CF505",
"e. c #3FEF11",
"r. c #6CC41D",
"t. c #75C81E",
"y. c #43EB0C",
"u. c #44FD00",
"i. c #4DFE00",
"p. c #45F80A",
"a. c #58FB02",
"s. c #65FF00",
"d. c #6BFD00",
"f. c #74FD01",
"g. c #76F807",
"h. c #7BFD02",
"j. c #7BFD0B",
"k. c #6EFF10",
"l. c #7BFD17",
"z. c #69C522",
"x. c #6FCB22",
"c. c #73CD25",
"v. c #77CD29",
"b. c #7AD225",
"n. c #73C539",
"m. c #3F8644",
"M. c #54894E",
"N. c #76885A",
"B. c #72BB4A",
"V. c #6F9269",
"C. c #73AF7A",
"Z. c #7BC949",
"A. c #83FD01",
"S. c #85FC09",
"D. c #8CFD0A",
"F. c #91FE0E",
"G. c #8AFC15",
"H. c #97FD19",
"J. c #95FF1D",
"K. c #A3F91E",
"L. c #87DA28",
"P. c #8DE02B",
"I. c #94E62E",
"U. c #9AEA2D",
"Y. c #89FB28",
"T. c #94FC24",
"R. c #94E432",
"E. c #9BEB30",
"W. c #8CFB37",
"Q. c #97F93A",
"!. c #A4EC2D",
"~. c #ABFB2C",
"^. c #B3FB2E",
"/. c #A1EE30",
"(. c #A6F231",
"). c #ACF533",
"_. c #A7F53A",
"`. c #B4FD36",
"'. c #B9FD33",
"]. c #B6FE39",
"[. c #B8F838",
"{. c #859578",
"}. c #8DB067",
"|. c #83C255",
" X c #8CFD46",
".X c #97FB44",
"XX c #9CFD4C",
"oX c #8BFD5D",
"OX c #9DFD52",
"+X c #97FB59",
"@X c #9DFD5A",
"#X c #A6FA49",
"$X c #A5EF5A",
"%X c #A3FD54",
"&X c #A3FD5A",
"*X c #A9FA5A",
"=X c #B5FA59",
"-X c #9ED176",
";X c #A5D16E",
":X c #A1CE76",
">X c #A2C77A",
",X c #A5CE7A",
"<X c #A6D179",
"1X c #9CFD63",
"2X c #9AF668",
"3X c #9DFF75",
"4X c #AEEC6D",
"5X c #A8F666",
"6X c #A5FD63",
"7X c #AAFD63",
"8X c #A4FF6B",
"9X c #ABFE6B",
"0X c #B7FC67",
"qX c #B3FE6C",
"wX c #ACFD73",
"eX c #A8FC78",
"rX c #B8F776",
"tX c #B3FC73",
"yX c #B4FE7B",
"uX c #BBFE7B",
"iX c #C7F871",
"pX c #C5FB77",
"aX c #C4FC7C",
"sX c #A349A4",
"dX c #7E9382",
"fX c #97B18A",
"gX c #A2A09A",
"hX c #A6D381",
"jX c #ADD382",
"kX c #B3F487",
"lX c #B5FD83",
"zX c #BCFC84",
"xX c #B6F888",
"cX c #BCFD8A",
"vX c #BEFC92",
"bX c #C3FE84",
"nX c #C9FC87",
"mX c #C3FC8B",
"MX c #CFF595",
"NX c #C4FD93",
"BX c #C9FF94",
"VX c #C8FA9C",
"CX c #C9D6B1",
"ZX c #CCFCA5",
"AX c #D4FDAA",
"SX c #D3EABC",
"DX c #CEFCB8",
"FX c #D6FEB6",
"GX c #E2FDAC",
"HX c #D5E1C9",
/* pixels */
"k G > xXZXw * w = ; XXh 1XH .XG .Xx  XL .XF XXC  XS m &X  $ >   4Xa 6 &X=.6 # tXs.6 w c lX4 @.OX* j s.s.s.s.s.s.nXNXZXBXmXZXZXmX",
"H h AX=X@ 2 ; & Z q #X+..XS #Xn .XB Q.c .XH OXJ _.l G =X  h * mXAX@ j @XP h x s.s.= g x yX4 #.OX& X s.s.ZXDXZXZXZ K A c L J i B ",
"K v lXf m Z m w * *.n.o.Z.*.Z.*.Z.*.n.@.Z.e Z.I n.  s.h.Q.y * *X  q $ 9X; * j s.s.4 g Z yX4 #.OXh l s.s., X n * S A b c j j N N ",
"c C 9XD K M V y h *.9 *.9 *.9 *.9 =.9 *.9 CX9 CX9 HXs.G.Y.i   Q.> = 6 &Xr w * s.s.& = c yX6 #.OXy t s.s.z q -   m j z L L k c A ",
"A m yXb n r x l t *.Y *.U *.*.*.Y *.U *.Y fXY }.Y fXa.VX  # s.qX* 6 $ *Xq = j s.s.6 w x yX4 #.XX# - s.s.u a SXA.A.%X8X@X%X*X&X*X",
"6 D eX*.d j e % *.6.W ' ~ ` { R E R Q ( [ E [ ! / W [ X.s.; s.uXl 6 r %Xw ; = qXs.= g x yX= #.OXx = s.s.q * > .X#X              ",
"K A g.F.*.* = *.| ! ! ~ R R Q ~ R ! Q R / ! Q ! _ ' Q ;.6.  s.wXg . t *X& ; q qXs.4 w c uX4 #.OX* r s.s.1 & Z dXo.a t l = = y r ",
"v G l.l.*.O h M.( Q Q ;.>.4.,.1.1.1.1.4.,.1.1.1.1.,.>.~ ' 8.s.wXg & d %X4 j t qXs.& w A yX= $.OXh = s.s.h O = g w = 1 4 = = ; & ",
"Z A V G A h * 5.] ! <.q.w.i.u.w.u.u.u.u.u.u.u.u.i.i.u.0.:.^ 8.yXr 5 j OX0 $ 6 rXs.& j g pX; @.*Xw & s.s.w = ; w 1 c >X}.N.N.V.V.",
"N z B s n r & 5.Q ,.q.a.s.j.f.f.h.h.f.h.f.h.h.h.f.d.a.y.9._ ( 8.S N O *XA 5 * 9Xs.; = G bX$ ..&X= ; s.s.= & = w 0 *XlXB x 6 n v ",
"H D z Z S l * | W 3.a.d.f.F.S.D.S.S.S.D.S.S.S.S.F.A.d.a.y.:.R { 4.1X6X@X@ 4 w 3Xs.* x Z rXj #.%Xw & s.s.= = ; = = qXa C & $ 7 > ",
"* & 6 w = ; gX7.Q 2.i.g.G.'.[.'.].].].[.].].].]._.~.h.s.y.~ R ( W C.& 6 6 ; k 0Xs.# q J uX; #.XXw & s.s.; = ; w < $XF # i C 1 e ",
"%X9X&X.X*X} ..E ` 3.i.h.T.R.c.t.r.r.r.r.r.r.r.r.b.(.A.s.q.;.) _ ) ] s.i = 1 O rXs.n ; M bX# #.%Xw $ s.s.= = ; w t 1XN $ z y w < ",
"0 ; o j 2 sXsX{ W 3.i.h.J.R.r.z.r.r.z.z.z.z.z.z.c.).h.d.w.` ^ ' R { fXq = C r yXs.. 6 M uXr $.OXw & s.s.= = ; w & 1XF % , # u & ",
"#X7X@X.XsXsX ._ ( 2.i.A.H.U.x.v.c.c.c.x.c.c.c.c.b.[.A.s.q.` _ _ ) R T  .n.@XQ.S.s.j & M rXg @.%Xw & s.s.= = ; = @ 7Xc # r g o j ",
"& q = y % gXfX| ) 9.p.A.H.!.b.v.b.b.b.L.b.b.b.b.b.^.A.d.w.) ( ! ^ ( *.*.CX% y y + t g c uX= $.OX= ; s.s.= 6 ; r 6 *XG z & t 6 w ",
"r $ u , 5 X. .W _ 3.i.h.J.!.L.L.L.L.L.L.L.L.L.L.L.^.h.d.y.` ^ _ _ ^ T Y B.wX7X*X*X*X7X%XpX6 $.XX* g s.s.= y l & h 5XM ; 5 - t 4 ",
"b k G G sXsXsX| ~ 3.i.h.H.(.I.L.P.P.P.P.P.P.P.P.P.~.h.d.w.` ! _ Q ^ *.*.s.; = 6 g h t : gXg P &Xj 1 s.s.& x $ ; 0 @Xi $ h e & ; ",
"eX0XtXrX5XX. .W ~ 3.i.h.K.).I.I.I.I.I.I.I.I.R.E.I.`.h.d.q.) ( ( ` _ T  .B.rXqXwX7XqXyXwX9XuX9XW.q $ s.s.$ i w X 1 %XV 2 S & % $ ",
"A S N n C sXsX| ! 3.i.h.T.).U.I.E.E.E.E.E.E.E.E.E.`.h.d.u._ ( ( ! ' *.*.SXr q 7 u * j 2 6 j l y i 6 s.s.O * l w r oXK * t + r y ",
"0X9XqXwX4XX...E ^ 9.a.h.J.).U./././././././././.E.'.h.d.w.) ! ( ( _ T ..Z.eXtXwX7XyXqX*X9XeX1X9X&XqXd.s.: d l g 5 #Xb r t & w 4 ",
"N G 7 S J sXsX| ! 3.i.h.J.^.(.(.(.(.(./.(.(.(.(._.^.h.s.w.` ! ( ) E *.*.CX; q & * C y h g x j , y x 8 gXl w 2 , p 7XA & $ i 4 g ",
"y tX5X2X4XX...W ! 9.i.h.J.[.(.).).).).).).).).).).'.h.d.w.` ! _ R { }  .B.qX7X9X6XqX@X8X&X1X2XwX5X8XwX6X8X8X@X8XoX Xa e v - X - ",
"r 0XG b m sXsXX.^ 3.i.h.J.'.).`.).).^.).).).).).).'.f.s.e.) ! ( ~ [ *.*.*.% - = ; , t q $ 2 ; = < > * = ; 6 & y 6 1 3 ; z @ l 4 ",
"- ;Xk eX*XX...] ^ 9.i.h.J.'.`.`.`.).`.).).`.`.`.[.`.j.d.q.) _ ! ~ [ ....Z.qX6X8X9X9X9X9X9X9X9X9X9X9X9X9X9X9X9X9X9XqX0X9X6X9XeX8X",
"5 :XC *Xa sXsX| _ 9.i.h.H.'.`.).`.[.`.].`.`.[.).[.~.f.d.p.;.R ^ W { *.=.*.@ l 4 = = = ; = = = = = = = = = = = = & 4 = 3 g $ 4 $ ",
"S -X= cXMX%...] _ 9.i.A.J.`.`.`.`.`.`.`.`.].`.].^.^.S.g.y.` W ` ( _ } ..|.aXpXzXuXuXuXuXuXuXuXuXuXuXuXuXuXuXuXuXcXyXlXqXuXzX0XbX",
"q -X* mX_.sXsX] ( 9.i.h.J.'.`.`.`.`.`.].`.`.`.].^.~.g.f.w.` ! ! ~ E *.*.*.r * 6 = = = = = 6 = = = 6 = = 6 = = 6 * * 7 q 1 $ > u ",
"2 <Xx 5XrX$ * 5._ 9.i.h.H.'.'.`.].'.'.].].'.].'.`.^.g.g.q.;.~ ` W ] X.O.|.aXwX8XrXyXyXrXyXrXyXyXrXyXyXtXyXyXtXyXiXrXkXcXyXzXC   ",
"$ >Xw lXwXq C >._ 9.i.h.J.'.`.`.'.].].'.'.].'.].'.`.j.f.q.~ _ ] ) W M.{.CX@ C z w & & w = w & = = = = = = = = = - ; ; @ 6 X .X  ",
"a hXd 0X@X% % 5._ 2.i.h.J.'.'.`.].`.`.].].].`.].`.~.h.d.w.:.E X.6.6.*.n . 1 6 # ; ; ; ; ; ; ; ; ; ; ; ; ; ; ; ; w ; - < d :   5X",
"5 <X- mX%X4 l 5._ 9.i.h.H.'.'.].].].'.].].].].'.'.K.h.d.w.~ 8.  5 i y @     fX- w r w w t w r w w w w y w w w w y ; & r 1 h - r ",
"= ;Xr zX@Xx # 5.) ,.a.s.A.A.F.G.A.S.G.G.D.F.D.G.J.f.A.a.q.:.X.  r 6 ; b Y.f.W.OX@X@X@X@X@X@X@X@X.X@X@X@X.XOX@X+XOX+X+XDX% y 6 2 ",
"w jX# uX9Xq & 7.E 1.e.i.d.h.h.d.A.h.S.h.S.f.h.f.j.k.s.p.0.^ { >.7.m.*.L $XY.DXF c m m N m k N k H h J H S A v L G b CXR.ZXh . d ",
"r :X6 zX6Xg & 6.{ ! 2.e.w.u.i.u.u.u.u.w.u.u.i.u.a.w.p.0.;.W ` ( ( ) *.a   s & & r w w r r e w w g r % l c r t = 1 % * I yX7XH * ",
"w <X= cX$X* & V.Q ( ) :.,.4.2.1.1.1.2.2.2.1.1.1.2.,.,.) R ) Q ^ ( { J =Xk.+XMXBXBXBXNXBXBXBXBXBXBXVXaXl.G.a 2 g 6 r = = 0 d.Q.DX",
"= hX= yXqXj &   ` ;.[ ^ W W W { ` R ( R ` R _ ] ~ ' ] ( ) ^ _ / ! C.% 7Xj..XnXmXBXNXmXNXBXNXNXNXvXvXaXl.G.r & w y     6 & y s.%X",
"r hX4 yX2X# 6 @   6.{ { ^ :.~ R / { { ' E ! ' _ Q ] R R [ [ ' 7.*.% y s.h H C +.j w w w w = = = h r O k c r w = o.W.s.d.h t = o ",
"w -Xh lX9X; ; Z V c N B #.M.%.-.%.%.-.V.M.M.M.%.&.%.M.&.V.&.  1 = g = e 5 t c v n j = w 6 = w r r $ d u t t 5 r 2 XXj.Q.s.& A H ",
"; ,X5 yX5X6 ; F s z D a %.N.%.V.&.8 t M -.M.V.&.B b i N.V.M.; = w $ w - d.s.H s c j w = w w = r $ r r & < ; & - =   i r .XmXF M ",
"w ,X- mX*X# l x M A A x yXA N c a.b z L j G S rXV A f rX  MXh t 4 1 u   G.f.W.OXOXOXOX&X@XOXOX%X@X1X6XXX6X9X*X6XqX=XvX6 $.cXG c ",
"w <X- zX6X= j M x c A N kXA N Z s.j H V c H A ZXA b Z vX  vX4 O : h S + =X.Xs.8 k k x x k j = ; 5 4 1 j y $ 6 *     &X# 4 X d..X",
"= ,X; bX6X- j c c c c N cXA c c s.K M ; A K h cXG j A ZX  NXu 6 y j = q = x l k N c N c M j w = & i $ & & 4 w g r @ &Xg 7 e &   ",
"w ,X- zX7X= c N N c A N cXA m c s.H M N c A z BXK h B NX  rX# h 1 # r r g 4 * c c c G c l j w w q i - ; t Z % 4 l % 0X; * r ; y ",
"= <X* zX6X= x N A x c j cXZ j c s.j Z H 6 N A xXN c 6 vX  7XeX1X8XtX7X7X7X1XtXwX9X8X9X9X7X7X7X7X6X8XeX7X7X=XY.0 2 # 8X% i 1 % 0 ",
"w ,X; zX7X; c N M c c 6 zXc k H s.A N h k K c BXS A m VXS $ * $ 1 ; e i = b . - w w = g = = w r 5 , j 4 e + #XA 0 d 9X, $ &   rX",
"= <X; zX6X; x M M A c $ mXN k H s.+.D m K y V MXG N N mX& = i h r = ; * j g w l - % = % - & w r r q t g u # %X. , 3 5X6 6 4 wXj.",
"g <X; zX6X- c c c c N = cXc c Z s.M F m Z n F f F 8 j  X6XXXXX#X&XXX&X%X.XXXOX%X%X&X%X&X&X&X*X7Xy 6 O 5 l $ +Xj i O +Xq d 6   Y.",
"g :X; zX6X= t c c c c r lXG c c s.B S j D L M c n N c g 6 $ r = g & - = 4 j q $ e * z % 6 6 y XX= g ; ; q = XX; l O 5Xt a = h q ",
"w :X; zX6X4 r c c c A ; cXc N c s.H C J H j j F F S M r * w w 6 g @ t x & t e 6 g 1 o k 4 O P XX= w & ; w = XX; y % *X2 4 & X r ",
"g :Xr zX6X= r c c c A ; cXZ c c x k G c x f H c A + MXaXqXlXlXcXbXbXmXpX0XmXuXnXpXuX+X@ d q ; %X; y = 6 w = XX- w % %X4 h VX.XlX",
"r :X; zX6X& e N c c A ; cXc c A z m c 3 z K x VXw 6 # ; * l 4 2 - & t & % r 8 l = & 6X4 h $ s 1X& g = = r w XX; k # &Xi r wXs.Y.",
"g :X; zX6X& r z A A c ; cXc N A K l b D y L n =X                              fXu u  Xw 5 & & #X= g & g w = XX; & y 8X# $   yXaX",
"j :X6 zX6X4 x c N c N ; lXN N A x c m x J k c mXyXlXcXmXuXyXcXlXlXpXuXxXcXzXyX9Xo l XXk $ = s XX= w & ; w = XX; 6 $ $Xn $   ; g ",
"= :Xr lX6X6 i c c c N $ uXx c c = L & K K C L : r ; * - r r - # - ; # i n # B kX7 t %X; 6 r r XX& g = ; w 6 XX- & & 7Xj w w = * ",
"g :X; zX6Xr x N c c c   lXx k Z & S M N k K 7 y g $ & ; r y 4 5 6 y ; e < h u 0X$ i %X% i ; & %X= y = ; q = XX; g 0 9Xo w i $ j ",
"* :Xh zX@X4 v b N A j   h.c H z = A Z G i L h ; 6 ; = = = = ; ; r O e r - 1 m tXw ; @X6 w = n XX& w = 6 t = XX; ; * 1XX l M Y.Y.",
"x ;X5 lX8X# d s j G m    XL * H & 4 $ & n V c C w w g 6 g 6 g w w g y 4 j = z xX; = @X& y = j XX= w = ; ; = XX; , h qXr j &.h.G.",
"$ -XC lX5X; d > C u g y V.A H F j 1 k t y h = & w = = r w w w = 4 i w , t & J 9X; = &X= w = j XX= g = = r = XX- e * &X& 1 = vXs ",
"j :Xt yX#XiXtXxXuX9XpXrXlXuXqXrXyXtX5XuXyXeXlXwXuXuXuXyXuXyXuXyXpXrX{.> i w D =X= 6 @X= j = n XX; y = 6 q 6 XX; - ; &X* = & nXc ",
"; hX# pX{.# r , & e o 7 C $ g 6 i q l & # n & $ ; = ; w = r = = : eXM ; = u H yX= ; &X; w = j XX& w = w q = XX; h 5 =X* i @ BXZ ",
"# <Xy cX          s i & g - i e & i l = w * # F w w = w = g w w @ =XK $ h = 7 qXr = OX= r = n XX& g = ; w = XX; - $ 7X- y i nXz ",
"l hX= 0XxXj.T.aXmXmXNXbXpXMXmXmXaXBXaXMXVXcXFX0 & ; ; & ; & ; ; h =XA 1 6 u Z yX; = &X& g = n XX& g & 6 w = XX; i 4 7X# w r VXK ",
"q ;Xj yXvXj.XXAXAXGXDXFXZXAXAXFXFXFXAXZXDXuXiX; w = y w w w = w ; lXZ & = w A tX= = &X; y & j XX= y = = r = XX= = = 6X& h $ mXM "
};
