/* XPM */
static char *_5[] = {
/* columns rows colors chars-per-pixel */
"64 64 247 2 ",
"   c #182E1B",
".  c #19341D",
"X  c #173C1E",
"o  c #193C1D",
"O  c #193C22",
"+  c #173D29",
"@  c #183831",
"#  c #19431E",
"$  c #15491F",
"%  c #194C1E",
"&  c #19521E",
"*  c #16581E",
"=  c #156B1E",
"-  c #18751D",
";  c #167B1D",
":  c #19791D",
">  c #194521",
",  c #194C22",
"<  c #174428",
"1  c #1B4C2A",
"2  c #165726",
"3  c #1A5523",
"4  c #165B24",
"5  c #1A5B24",
"6  c #16552A",
"7  c #1A552B",
"8  c #1A5A2A",
"9  c #1A4932",
"0  c #1B5734",
"q  c #214F2F",
"w  c #364A39",
"e  c #255C37",
"r  c #36523E",
"t  c #186726",
"y  c #167522",
"u  c #177726",
"i  c #197522",
"p  c #197A22",
"a  c #26652C",
"s  c #276836",
"d  c #277637",
"f  c #36773D",
"g  c #213143",
"h  c #2C4A4A",
"j  c #364E4B",
"k  c #265847",
"l  c #365344",
"z  c #355348",
"x  c #1E6541",
"c  c #286B4B",
"v  c #2E794B",
"b  c #367C46",
"n  c #347C57",
"m  c #347964",
"M  c #4E577D",
"N  c #4A7477",
"B  c #158B1D",
"V  c #17AB1C",
"C  c #198A23",
"Z  c #27893A",
"A  c #289136",
"S  c #259937",
"D  c #18AF22",
"F  c #24BA2A",
"G  c #27A938",
"H  c #29B537",
"J  c #32BC3D",
"K  c #1CD727",
"L  c #2ACF36",
"P  c #33C93D",
"I  c #32D83D",
"U  c #1EFB29",
"Y  c #36E53C",
"T  c #34FC3D",
"R  c #38FA3F",
"E  c #298545",
"W  c #348748",
"Q  c #2C9641",
"!  c #359845",
"~  c #35924B",
"^  c #359C4B",
"/  c #338455",
"(  c #348B58",
")  c #369457",
"_  c #349D54",
"`  c #349B5A",
"'  c #2DAA48",
"]  c #34A248",
"[  c #33A44B",
"{  c #39BB47",
"}  c #34A356",
"|  c #35B657",
" . c #34BD53",
".. c #358865",
"X. c #379962",
"o. c #43944E",
"O. c #4DB556",
"+. c #4B8978",
"@. c #4BB16B",
"#. c #34C649",
"$. c #33CA4B",
"%. c #2FD34A",
"&. c #32D843",
"*. c #33D44B",
"=. c #33DC4B",
"-. c #35C652",
";. c #34D652",
":. c #34E243",
">. c #36E649",
",. c #35FC42",
"<. c #3BFC44",
"1. c #38F849",
"2. c #49C857",
"3. c #44FB47",
"4. c #43FC4C",
"5. c #49F254",
"6. c #54D365",
"7. c #4BEB63",
"8. c #4E398A",
"9. c #5A24BD",
"0. c #672ABF",
"q. c #4D4C86",
"w. c #6D5795",
"e. c #7D7A90",
"r. c #5D28C2",
"t. c #642CC4",
"y. c #692CC7",
"u. c #732DC6",
"i. c #6B33C6",
"p. c #6733C8",
"a. c #6C33CC",
"s. c #7636C7",
"d. c #7235CC",
"f. c #743CCD",
"g. c #7A3BCE",
"h. c #6D36D1",
"j. c #7638D3",
"k. c #763CD2",
"l. c #7A3BD2",
"z. c #7A44CB",
"x. c #764CCD",
"c. c #7C43D4",
"v. c #7C4AD6",
"b. c #7B46D8",
"n. c #7F40E2",
"m. c #977BB8",
"M. c #843BCD",
"N. c #833ED2",
"B. c #883FD4",
"V. c #943DD5",
"C. c #833FE3",
"Z. c #8642CD",
"A. c #8342D3",
"S. c #8B42D2",
"D. c #834AD3",
"F. c #8647DA",
"G. c #974AD9",
"H. c #8353DC",
"J. c #8955DA",
"K. c #8858D9",
"L. c #9657D8",
"P. c #A646DC",
"I. c #AD5BDA",
"U. c #B457DF",
"Y. c #8B64DD",
"T. c #9362DB",
"R. c #9175DB",
"E. c #AC65D6",
"W. c #8648E6",
"Q. c #954FEA",
"!. c #8C5AE7",
"~. c #9558F6",
"^. c #AD49E1",
"/. c #B24CE3",
"(. c #AB57E2",
"). c #B454E5",
"_. c #B957E7",
"`. c #B45BE3",
"'. c #BB5DE5",
"]. c #BD5EE9",
"[. c #A65EF9",
"{. c #8C67E4",
"}. c #9668E4",
"|. c #966CED",
" X c #9473F4",
".X c #AA6CE9",
"XX c #BD61E6",
"oX c #BB67E5",
"OX c #BB73E6",
"+X c #D459F4",
"@X c #E85AF9",
"#X c #EB5CFC",
"$X c #F25DFC",
"%X c #C566EA",
"&X c #C477E9",
"*X c #D772ED",
"=X c #D966F5",
"-X c #DA73F5",
";X c #DD73F5",
":X c #E47FEF",
">X c #E764F9",
",X c #ED64FB",
"<X c #ED6BFC",
"1X c #F165FC",
"2X c #F16CFC",
"3X c #E478F6",
"4X c #EE72FB",
"5X c #EE7AFB",
"6X c #F375FC",
"7X c #F279FC",
"8X c #FB7DFC",
"9X c #63A294",
"0X c #61CD91",
"qX c #9E87BB",
"wX c #9B9AB2",
"eX c #A28DBB",
"rX c #9AB4A9",
"tX c #9CD8A9",
"yX c #9BA7DE",
"uX c #9C88EB",
"iX c #AA86E9",
"pX c #CB86EB",
"aX c #D689EE",
"sX c #C898EA",
"dX c #E182EE",
"fX c #E38AED",
"gX c #EA86F5",
"hX c #FB83FC",
"jX c #F886FC",
"kX c #F28BFB",
"lX c #E996F5",
"zX c #FA95FA",
"xX c #FB9CFC",
"cX c #C7B6EB",
"vX c #EDACF6",
"bX c #FAA5FA",
"nX c #FCACFB",
"mX c #FBB6FC",
"MX c #CDC3EB",
"NX c #D2D5EF",
"BX c #EBCCEA",
"VX c #FCC3FB",
"CX c #FACAFA",
"ZX c #F9D5FA",
"AX c #EDF2EE",
"SX c #FCE5FD",
"DX c #FBF9FA",
/* pixels */
"j.g.j.d.f.h.k.f.d.j.k.k.a.f.h.h.d.f.h.f.a.f.h.d.s.j.h.a.d.d.h.h.a.a.h.d.i.h.a.h.a.h.a.i.d.a.h.i.a.p.h.a.y.h.y.p.h.y.y.y.p.p.p.y.",
"g.d.d.d.d.f.d.h.d.j.d.h.d.d.d.f.j.i.a.d.i.a.a.a.a.d.a.a.d.i.d.u.s.i.i.i.i.u.u.i.p.p.p.t.u.y.y.y.y.t.t.t.y.y.y.y.t.t.t.t.t.y.t.t.",
"_._.'.'._._.`.(.f.h.d.a.G.`._._._._.)._.`.).).S.i.i.p.g.^.).).).).)././.)./.P.u.0.t.y.V.^.^././.^.^./.^.^.^.M.t.r.r.y.P.P.^.^.^.",
"4X4X2X4X4X<X4X=Xs.a.u.i._.<X<X<X<X<X<X<X2X,X<XP.t.t.t.M.=X,X,X<X>X,X,X,X,X,X+Xs.t.r.t.P.>X>X,X>X>X,X#X#X#X@XP.t.r.r.y.+X@X@X@X@X",
"6X6X2X4X4X6X4X=Xg.h.h.d.%X2X4X2X<X4X<X4X<X4X<XI.d.a.u.B.>X<X<X<X4X<X<X2X<X<X=XM.y.p.p./.<X<X<X<X<X,X<X1X1X<X^.y.p.y.d.=X>X<X1X1X",
"2X2X6X4X4X2X4X%Xs.a.d.u._.1X4X4X4X<X4X<X<X<X<XP.p.a.y.M.=X<X<X<X<X<X<X<X<X<X>X0.p.p.y./.<X<X<X<X,X<X,X2X,X<X^.t.p.y.u.@X#X,X<X,X",
"2X<X6X<X<X2X2X=Xs.d.u.s.).<X<X<X<X2X2X2X2X1X,XP.y.a.y.M.=X,X,X,X,X1X1X,X1X1X=X0.t.y.y.P.>X#X,X,X,X,X,X#X,X$X^.t.t.t.u.+X#X#X>X#X",
"2X2X<X<X<X<X2X+Xs.p.i.0.).<X1X,X,X1X1X,X,X,X#XP.t.t.t.j.>X$X$X,X,X,X,X$X$X1X@X0.r.r.t.P.#X$X$X@X#X#X$X#X#X#XP.9.9.r.y.+X#X#X#X#X",
"*X2X<X<X<X<X2X%Xs.y.p.y.).<X,X<X<X,X<X,X,X,X,XG.t.t.0.M.=X,X,X>X,X>X#X>X@X@X+Xu.9.r.0.P.@X@X@X@X@X@X@X@X@X@XP.9.9.9.y.+X@X@X@X@X",
"rXdX7X6X4X6X6X=XN.j.f.s.XX5X4X5X4X6X6X6X6X4X4X(.d.k.d.M.3X2X6X6X6X2X2X6X6X6X-XN.h.h.a.).4X4X7X4X6X4X4X4X<X6X).h.h.h.M.=X2X2X2X1X",
"5.rXfX3X6X6X6X*XZ.l.c.g.%X5X5X7X7X5X7X7X6X5X3XI.g.g.l.G.>X7X7X7X6X7X6X7X7X7X;XZ.f.k.f.'.7X5X7X7X6X7X5X7X7X6X'.l.j.j.S.;X7X7X6X6X",
"R 5.rXdX5X5X6X-XN.j.k.g.'.5X7X7X7X7X7X7X7X7X7X).g.g.g.S.;X7X7X6X7X7X7X7X7X6X;XS.g.g.g.'.7X7X6X6X7X7X5X7X7X7X`.l.j.j.B.;X7X7X6X6X",
"R R 5.rX:X8X:X*XZ.k.c.g.%X5X5X5X7X5X5X5X5X5XgX(.g.k.f.S.;X5X5X5X5X5X5X5X5X5X-XA.k.l.k.`.5X5X5X5X5X5X5X5X5X5XXXf.l.k.A.-X7X7X7X5X",
"L F F O.9XE.U.I.c.c.l.l.G.`.`.`.`.`.`.`.`._.`.G.l.l.l.F.`.`.`.`.`.U.`.`.`.`.(.l.z.l.l.G.`.`.`.`.U.`.`.`.`.`.G.k.l.l.l.(.U.`.'.U.",
"V V V V S N x.D.c.b.b.b.D.v.v.A.A.F.b.v.b.c.A.b.b.A.c.A.l.c.z.A.Z.z.c.l.l.c.A.b.c.f.l.l.z.l.N.g.l.l.g.g.g.g.l.k.g.l.k.l.l.f.g.g.",
"F F F F F G 9Xx.D.K.H.v.H.D.v.H.b.v.H.v.v.v.b.b.v.b.b.b.b.v.v.b.v.c.b.b.b.v.v.A.b.c.v.b.x.b.c.c.v.z.c.c.z.l.c.g.c.c.k.c.l.k.z.f.",
"Y Y Y Y Y Y 2.9XR.{.R.|.R.}.{.Y.K.K.v.v.v.v.v.{.v.v.{.v.{.v.H.H.D.v.b.K.}.K.}.{.T.K.Y.Y.K.{.J.{.K.!.K.Y.L.K.!.c.c.c.k.c.k.l.N.l.",
"R R 3.3.R 3.3.5.0XuXuXuXuXuXuXR.R.{.{.{.R.{.{.{.{.v.v.{.K.!.K.K.J.K.!.L.R.L.}.}.}.Y.T.Y.T.}.L.T.L.T.K.T.L.T.K.v.c.b.c.z.c.l.g.b.",
"3.3.3.5.3.5.3.3.>.0XyXyXcXNXNXMXMXMXMXMXMXcXcXuX{.{.|.|.sXcXiXsXsXsXsXsXsXpXpXT.{.{.}.OXpXaXpXaX&X&X&XpXpXpX.XD.b.b.H.oX%X%X%X&X",
"3.3.3.3.4.4.3.<.U >.0XyXNXDXDXDXDXDXDXDXDXDXDXcX X X XuXZXZXZXZXCXCXVXVXVXVXvX}.!.!.K.pXmXnXnXnXnXxXbXbXxXbX&XW.W.W.Q.lXzXjXzXzX",
"4.1.1.4.4.4.4.<.U U T 0XNXDXDXDXDXDXDXDXDXDXDXcX X X XiXZXZXZXZXZXZXVXVXVXVXvX|.~.~.~.pXmXnXnXnXnXnXnXnXnXbXpX~.~.~.[.vXnXbXbXbX",
"4.4.<.<.4.4.<.R U U U I tXAXDXSXSXSXSXSXSXZXZXiX X X~..XVXVXVXVXVXmXmXmXmXmXvX.X~.~.~.pXnXmXmXnXnXmXmXmXmXmXaX[.[.[..XvXVXCXCXZX",
"<.<.<.<.<.<.<.<.U K K K 1.tXBXmXVXmXmXmXmXmXVXpX!.!.!..XvXnXnXnXbXbXnXnXbXbXlX~.W.~.!.&XxXxXbXxXxXxXxXxXzXbX&XQ.Q.Q.(.gXzXzXzXbX",
"T <.<.,.,.<.,.>.D D D D Y 7.tXcXbXbXxXxXxXxXxXOXW.W.n.L.lXzXzXzXzXzXzXzXzXzXgX!.n.W.n.OXzXjXjXjXhXjXhXjXhXhX%XA.C.C.G.dXgXhXhXhX",
"T T T ,.,.,.T :.V V C C L 1.7.rXlXjXjXjXkXkXjXXXc.c.c.G.gXjXhXjXhXhXjXjXkXjX3XF.c.z.l.oX7X8XjX5X8X8X8X7X7X7XXXl.j.j.B.3X7X7X8X6X",
"T ,.,.R ,.,.T :.B B C B %.1.1.7.rXfX8XjXjX7X7X`.l.k.c.S.3X7X7X7X7X5X5X5X4X7X;XS.l.j.f.'.5X5X5X7X5X7X5X5X7X5X].k.j.j.N.3X5X4X7X6X",
"T T T R T ,.,.:.B B C C L 1.,.1.7.rXdX7X5X7X5X`.g.l.k.S.3X6X7X5X7X7X7X7X7X6X3XS.l.l.z.`.5X7X6X7X7X6X6X6X7X7X`.g.j.j.B.-X6X7X7X6X",
"T T T T T T ,.:.B B p ; L 1.,.,.1.7.rXdX5X5X5X(.g.l.l.S.3X6X6X5X7X7X6X8X7X7X;XA.l.l.s.(.7X7X7X7X5X7X8X6X7X7XXXl.N.j.B.<X6X7X7X7X",
"T T ,.1.,.,.,.=.C y p B J 1.1.>.>.1.7.wXdX5X3X(.z.j.j.S.;X7X5X5X5X5X5X5X5X5X-XS.k.g.f.XX3X5X5X7X5X4X5X5X7X5X`.l.l.k.Z.;X7X7X7X7X",
"F F F H H F F F C p p ; S H H F H G G [ e.E.I.G.l.l.l.A.(.`.`.`.U.`.`.`.`.`.(.l.l.l.g.G.`.`.`.`.`.`.`.`.`.`.G.l.l.l.N.(.`.`.`.'.",
"- : ; p - ; ; ; y ; ; p - y p y y y y y s M i.f.l.l.l.j.l.l.k.k.j.f.f.g.f.g.g.f.f.g.c.k.l.k.k.l.l.l.g.f.f.l.k.c.l.l.k.j.k.k.f.g.",
"- - : - - ; p p y p p p ; - p y y y y y u c M x.l.l.l.l.g.l.g.g.g.l.l.l.k.l.l.k.f.k.k.l.g.l.g.g.g.g.k.l.k.l.k.f.l.j.k.l.l.g.g.j.",
"- - : - : : i : ; y - i u i - - y y y y y u s q.z.f.f.j.l.l.g.g.l.k.j.k.k.l.l.l.k.g.j.k.l.l.g.g.j.l.f.k.k.l.l.l.l.l.k.f.j.l.g.k.",
"- - : ; - - ; ; : i i i p y y ; y y y y y y y s q.z.k.z.l.l.l.g.l.l.g.g.l.f.l.j.c.k.k.k.l.l.g.k.f.g.g.l.l.l.l.j.k.k.k.g.l.l.g.k.",
"H H H H H H H G : y y y S H H J H ' { H ' ' ' A s q.z.Z.`.XXXX].XXXXXX%X'.'.`.A.k.k.z.P.XX%X'.XXXX'.XXXXXXXXG.l.k.f.A.`.].'.'.'.",
"I Y Y :.Y :.:.$.; i y - H >.>.>.>.=.=.=.=.%.;.S = x q.Z.;X7X7X7X5X5X7X6X7X5X3XS.g.j.g.`.3X7X5X6X7X6X7X7X5X7X].g.l.g.B.;X7X7X7X5X",
"I Y I Y I Y :.L : t i - G =.:.>.>.=.=.=.=.;.;.G y t k w.-X5X7X7X5X7X7X7X7X7X3XZ.k.k.k.`.7X7X7X7X5X7X7X7X7X5XXXf.j.l.B.;X7X7X7X7X",
"I I I I I I I #.: i i = J =.&.&.=.=.=.=.=.%.%.Q t t t x wXdX5X7X7X6X7X6X7X6X;XZ.k.g.g.`.5X6X7X7X7X6X6X7X7X7X'.f.l.g.B.;X7X7X7X6X",
"P I I &.&.I I P - i t = G ;.&.&.=.=.%.%.;.%.;.Q t t t u @.wXdX4X7X6X7X7X7X7X;XS.l.g.f.'.5X7X7X6X6X7X7X7X5X7X`.f.l.k.B.-X7X7X6X7X",
"P P I I I P I J - t t = G $.&.&.*.%.=.%.%.%.;.Q t t t u -.@.wXaX6X7X7X7X7X7X;XZ.l.l.f.`.5X6X7X7X7X7X6X7X7X7X'.g.l.l.B.;X5X7X6X7X",
"P P P P P I P J - 5 = = G #.%.%.%.%.%.%.$.-.;.Q t t t u | -.@.wXdX7X7X7X7X6X3XS.l.l.g.`.7X6X7X7X7X6X6X7X7X6X'.g.l.l.B.*X6X6X8X6X",
"P P P P P P #.J - t = = G #.&.$.$.$.$.$.$.%.-.S t 8 8 u  . . .@.wXdX7X6X6X6X;XM.l.l.g._.6X7X7X6X6X5X5X7X8X7X'.g.l.l.B.;X7X7X7X6X",
"J J P P J P P { : = 5 = G #.#.#.$.$.$.#.$.$.-.S t t 0 u |  . . .@.wX:X7X5X7X;XZ.k.g.g.U.5X6X5X6X7X6X5X6X6X7X'.l.j.k.Z.;X7X7X7X7X",
"{ { { #.2.2.#.{ d a a a S 2.2.#.#.#.#.$.#.#.-.Z t 8 t u |  . . .| @.wXdX5XjXdXG.D.z.z.%X5XjX7XkX7XjX7X5XjX5XoXl.l.k.Z.;X7X7X7X4X",
"O.O.O.6.O.6.2.O.f f f f O.6.6.-.#.{  . . .$. .Z 4 t 5 t | | |  .| | @.eXlXkXfXL.J.J.K.&XkXkXgXkXgXkXkXkXkXkXOXz.j.l.B.;X7X4X7X6X",
"o.o.o.o.A o.o.o.f s s f W o.o.S Z Z A A Z Z Z u t 8 8 t Z E Z E E E E o.m.E.OXK.L.D.J.E.oXOXoX&XoXoX`.OXOXOX.Xg.k.j.N.I.`.`.`.`.",
"& a a a a s a a a * * a a a a a 4 * t * 4 4 4 4 8 8 8 8 2 4 8 4 2 2 6 0 k q.z.z.F.D.H.D.Z.D.Z.D.g.f.z.v.D.A.D.c.l.l.l.l.g.g.g.g.",
"& & & & & * 3 & * 5 5 5 & & 5 7 3 t 8 4 8 8 8 6 4 4 8 8 6 6 7 7 6 6 6 6 7 k q.s.l.l.f.f.l.c.c.k.l.j.z.s.j.k.g.k.k.l.j.l.g.l.l.g.",
"% & % & & & & & & & 5 5 5 & * 5 5 3 5 5 8 2 5 5 8 2 2 8 6 8 6 6 0 6 6 6 6 9 h q.f.j.f.k.l.l.j.l.l.l.l.l.l.k.f.l.k.l.j.g.k.l.l.f.",
"% % % & % & & & & & & & & * * 5 * 5 5 5 5 4 * 5 7 7 8 8 2 2 6 8 6 6 6 0 6 6 0 9 q.z.f.f.l.l.l.l.l.l.l.l.k.g.l.l.l.k.k.l.j.l.k.z.",
"% # % % % & % & 3 3 & & a Z A A Z Z Z E Z Z W s 3 7 6 8 v Z E E E E E E v v v 0 9 q.0.I.].%XXX].XXXXXX].].XXG.g.l.g.Z.`.].].'.'.",
"# % # % % % % % & & , & Z ] ] ] [ [ ' ' ] [ [ d 2 6 1 t _ } } } ` ` ` } } ` ) 8 < h q.I.5X6X7X7X5X7X7X6X7X5XXXg.l.l.N.-X6X7X5X5X",
"# # % % # % % % $ , , & f ] ] ] ] ] ] ] ] ' } d 2 , 3 8 _ } [ } ` } } _ _ ` ( 0 < 9 h w.dX7X7X7X7X7X8X7X7X6X_.j.l.j.B.3X7X7X7X7X",
"# # # # # # # % , , , $ f S G ] ^ ^ ^ ^ ^ [ _ d 6 1 1 0 ~ ^ _ _ ` ` ` ` ` } ) 0 9 9 @ m qX5X7X7X7X7X6X7X8X7X%XN.l.l.B.3X8X7X8X7X",
"o # # # # # % # > , , $ f ~ ! ! ! ^ ^ ^ ^ [ ^ d 6 1 , t ) _ _ _ ` ` ` ` X.X...0 9 9 1 c +.eXgX7X8X8X8XhXhX8X%XC.C.n.F.3XhXhXhXhX",
"o o o # # # # # > # , % d ~ ! ! ^ ^ ^ ^ ^ ^ ) d , 1 1 8 ) ` ` ` ` ` ` X.X.X.( e q q 9 c ..+.qXgXhXhXhXhXjXhX%XC.C.W.G.3XhXhXhXhX",
"o o o o o # O # # > # $ d ! Q W ! ~ ~ ! ^ ^ ) d , 1 , 8 ( _ _ ) ` X.X.` X.X...0 q 9 9 c ....+.qXgXhXhXhXhXhX%XW.W.C.G.4XhXhXhXhX",
". o o o o o # # # X O $ s W W W W ~ ~ ~ W ~ ( d 1 < , 6 W ) ( ) ( ` ( ( ..( ( 0 @ 9 < c ......+.qXgX8X8X8X7X%XB.n.C.W.3X8XhX8XhX",
". . o . o o o o o o > > a b W Z E W W W W ~ / s > < > 1 / / ( ( ( ( ( ( / ..n 9 < 9 9 k ....m m N m.dX8X7X8X%Xl.l.l.F.3X7X7X8X8X",
". . . . o o o O o # O O s W b W b W W W / W E s > < < 6 W / / / / / / / / ( n 9 @ 9 @ c m ..m m m N m.3X7X5XXXl.j.j.B.;X6X7X5X7X",
"  . . . . . O o o o o o e f b b b b b b b W / s < < + 1 n / / / / / / n n n n 9 @ 9 @ k m m m m m m M m.5X7XXXl.l.l.B.-X7X7X5X5X",
"      .   . . o O o O o q q e e 0 e e a e e e 1 + < > < e e e e k e k e x k k @ @ @ @ 9 k k h k h k h j w.(.G.l.j.l.g.I.U.`.`.U.",
"          . . O . . o o o o o o O O O O O O X O O + + O O < + O < + + + + + + + 9 @ @ @ @ @ @ @ @ @ @ @ g 8.s.g.l.k.f.g.g.g.g.g.",
"w w w w w w w w w w w r w w r w r r r r r l r l l l l l l l l l z l l z l z k h z z z j j j j j j j j j j j w.K.J.J.K.D.J.J.J.K."
};
