/* XPM */
static char *_9[] = {
/* columns rows colors chars-per-pixel */
"64 64 82 1 ",
"  c #130F13",
". c #161616",
"X c #141B14",
"o c #171818",
"O c #1C1C1C",
"+ c #201F1F",
"@ c #142314",
"# c #142B14",
"$ c #143114",
"% c #153915",
"& c #242424",
"* c #282827",
"= c #272728",
"- c #282728",
"; c #2B2B2B",
": c #302F2F",
"> c #2F312F",
", c #312F31",
"< c #2F3031",
"1 c #333333",
"2 c #3B3B3B",
"3 c #403F3E",
"4 c #144214",
"5 c #144C14",
"6 c #155515",
"7 c #155B15",
"8 c #156315",
"9 c #146914",
"0 c #157615",
"q c #157C16",
"w c #3D413D",
"e c #236C23",
"r c #2D632D",
"t c #41403F",
"y c #3F4040",
"u c #444444",
"i c #474847",
"p c #4B4B4B",
"a c #4F5050",
"s c #535353",
"d c #5C5C5C",
"f c #605F5F",
"g c #626262",
"h c #676868",
"j c gray42",
"k c #158416",
"l c #168E17",
"z c #168419",
"x c #188519",
"c c #178C19",
"v c #198E1A",
"b c #159415",
"n c #159B16",
"m c #169318",
"M c #1A931A",
"N c #179D18",
"B c #16A317",
"V c #15AC16",
"C c #16A518",
"Z c #15AB18",
"A c #18AC19",
"S c #15B316",
"D c #16BB16",
"F c #15B118",
"G c #16BA18",
"H c #1AB91A",
"J c #15C515",
"K c #15CD16",
"L c #16C218",
"P c #18C319",
"I c #19C919",
"U c #15D415",
"Y c #14DC15",
"T c #12E613",
"R c #12E913",
"E c #2CE72C",
"W c #2BE92D",
"Q c #2EE730",
"! c #35E636",
"~ c #35E837",
"^ c #3AE73B",
"/ c #38E83B",
/* pixels */
"...........o..o.................................................",
"................o...o..o...o...............o.............o. ....",
".............o.......... +...................+.............+....",
";..........o.......o........+..........o.......................*",
"&;.......o...........................+ ......+................**",
"X&>............o............o..o...................+.........&&X",
"BX+;............ ...o.o.....................................**Xl",
"TVX&&......o....+...............o..............o.......... +*.bT",
"TT6.1. .........................................X..........:.%TT",
"TRk :...o.........+ ........o..............................1.7RT",
"RTb.+*.........o.o........ ...o...+.+.................... &&.9TT",
"TTU@.*&...................+..............................+:.XDTT",
"0TTS@.*&....o.o..... +.............................o....+*.XnTRb",
"uqTTS@.;&....................o........o................O:.XnRTb1",
"du0TTAX.&&..o..o......o....o...............+..........+*.XnTTbtf",
"e;.0TTSX.,o.....................................o..o..1..nTTl.&r",
"T8..0TY#.1o............. .....o.......o..o........o.. :..UTlX 6Y",
"TT7..65.*+......o.o....o+.....................o.......+:.48. 5YT",
"TTT7...+*..................o.......................o. .+*...5YTT",
"CTTT7..O;...................o....... +.....o...........&&. 5YTRD",
"XCTTT8..+*........o.o.............o...................&* .5YTTD@",
"wXZTTT7..&*.....o..............o.........o.....o.o...&-.X5YTTD#>",
"1tXCTTT7..&*......o....o.o......o...................&-..5YTTD@13",
"61w@BTTK8..&*................o............ +.......&;..5JRTD@124",
"T6<2.VJMG7..+*..............o.............o.......&*..5PlSD@224Y",
"TY61tXBAvP8..&*........o..o..........o...........**..5PvCD#12%UT",
"RTT613XZHvD6..*O...............o. .........o.....:..%IlADX124YTR",
"DTTY61uXBVmc..1...o.o............+....o.o...o....,.X0bVD@224UTTJ",
"SDTTT6<wXnD%.1..........o..o...........o......... 1X$SV@>2%YTTJV",
"TDDTTY6<u....*.........o.........o................&+ ..124UTTJST",
"TTDDTTT6,2...>&.............o.......o............O,...124YTTJVTT",
"TTRDSTTY61u...*&..........o...o. +......X..... .+:..X224URTJSTRT",
"BTTTDDTTY712...;&........o....o......o.........+;.. 124YTTJVRTTS",
"UBTTTDSRTY71y...;+.....o......................+;...214YRTJSTTTVJ",
"TKVTRTDDTTY6<2...:+..........................+:...124YTTJVTRTVJT",
"TTUBTTRDSTTT61u...:+........o........o......+*...224UTTJSTTTVKRT",
"TTRUBTTTJDRTY6>2.. ;&..................o...+:X X114UTRJVTTTVJTTR",
"TTTTUBRTTDSTTT7>3...;& ..o....o.......... X: ..235YTTJSTTTZKTTTR",
"TTTTTKVRTTnSTTY6,3...u-.............+....+s ..124UTTDkTRTJJTTTRR",
"TTRTTRBTRTTTRTRT6,3. .....o..o...... ......X.22%YTTTTTTTRbRTRRTT",
"RTTTTTFTTTRTTRRTJ.1w..........o.............13 STTRTTRTTRnRRTRTT",
"kbTTRRZTRTTTTTTTY@.:u...o...o........+.....23.XKTTTTTTTTRbRRRTV9",
"TTTTTTZTTTJKJJJJD@o.s1....................*fX XSJKJKJJYTRbRRTTTT",
"TTRTTTCTTnJJJKJJD@..ud ....o..o....+......pp. XSJJJJJJnTRnRRRTTT",
"TTTTTRZTTVTTTTTTY#..ug.................o. sa XXJTTTTTTSTRbRRTTTR",
"RTTTTRCTTVTTTTTYJX..if....................ss .XSTTTTTTSTRbRRRRTR",
"BBZBBZSTTATT8%%%@...if..o....o.o......... sa  .X%%$5YTVTRJBBBBBB",
"RRRRRRTTTVTYXo2,....uf................... saXX.X;wX JTSTRRRRRRRR",
"RTTTTTRRTZRYXyppO...if....................sa....upi JTVTTTRRTTTT",
"UUUTRTTTTVRYXuiu+...if......o.....o...o...ss...Outp JTSTTTTRTYJU",
"zmkTTTTRTZRY.iuy+...us..........o.........up ..ottp.LTSYTTTRRMMx",
"AVVSJTTTTZTYXuii&...i;......o..o...o.... .&p...Oitp LTSTTRTJSSZV",
"X..X.6YRTZRT@1ap&...iO.......o.............i.. Opiw.KTSTTT8X...X",
"o.oo..5YTVKRq.sji...u+..........o.....o...op...1jfO7TYCTY8..Xoo.",
"==;;=O.5TTCKT7Odh;..uO.........o..........op..&gf+5YYnTT8.O*;;**",
";;;*&*+.5UTCKT8osh;.i+.......o.....o.o...oop.-gd+5UYnTY7 O;&*;;;",
"&&+..+*+.5YTZKT7Odg2sO....................od;gfO5YUnTT7.O*&..+&&",
";=....+*O.5UTnTT8oyapo.....................iau&5YRBTY7.O*&....&-",
"=..++..O=O.5YZUTTz%%%%%%%%%%%#....@%%%%%%%%%%%0TTTBT8.o;&. @&..*",
".X.;==..+;+.5NURRRRRWE/!~^!^TY$..@UTE^!^Q^!QRRRRTTb8.O*+..&*;...",
".oO<.*&..+;O..57677777667777MT4..$TB77777767677776X.O-&..+;.:.oo",
"==*O..=&..+*+oOOOOOOO+@oOO..@Y4..$Y%..ooOOOOOOOOOO+@*&..&;..o;;;",
".......;&..o&&&&&&&&&&&&&&O.@T4..#T%.O&&&&&&=&&&&&&&O..+;.......",
"........=<..+;;;;;;;;;;;;*&.XT4..$T%.&;;-;;;;;-;;;-&..;;........"
};
