/* XPM */
static char *_4[] = {
/* columns rows colors chars-per-pixel */
"64 64 149 2 ",
"   c #001700",
".  c #001B01",
"X  c #042206",
"o  c #082207",
"O  c #052609",
"+  c #0A250A",
"@  c #042A0B",
"#  c #0B2C0D",
"$  c #102A0F",
"%  c #03310F",
"&  c #0A310E",
"*  c #032F10",
"=  c #0D2B10",
"-  c #102B10",
";  c #033412",
":  c #0C3311",
">  c #043A15",
",  c #0B3C15",
"<  c #093718",
"1  c #033D19",
"2  c #0B3C1C",
"3  c #113413",
"4  c #123A16",
"5  c #143C18",
"6  c #103E20",
"7  c #313732",
"8  c #343B34",
"9  c #373F39",
"0  c #393F38",
"q  c #0D4116",
"w  c #04431C",
"e  c #0B441A",
"r  c #06481C",
"t  c #0B4B1E",
"y  c #104317",
"u  c #124A17",
"i  c #124619",
"p  c #134A19",
"a  c #194F1D",
"s  c #0E521F",
"d  c #15531D",
"f  c #044721",
"g  c #0B4421",
"h  c #064C23",
"j  c #094E24",
"k  c #074F28",
"l  c #114C22",
"z  c #134D2A",
"x  c #065126",
"c  c #095126",
"v  c #075328",
"b  c #0B542A",
"n  c #06592C",
"m  c #0E5A2B",
"M  c #135522",
"N  c #1A5323",
"B  c #155A23",
"V  c #1B5D24",
"C  c #12532D",
"Z  c #125C2B",
"A  c #1A5D2B",
"S  c #0D5C31",
"D  c #145A31",
"F  c #205625",
"G  c #225E29",
"H  c #334037",
"J  c #36443B",
"K  c #3C443C",
"L  c #354D3F",
"P  c #3A493E",
"I  c #1B6325",
"U  c #14622D",
"Y  c #1B652B",
"T  c #1D6A2C",
"R  c #036434",
"E  c #096635",
"W  c #046A36",
"Q  c #096D36",
"!  c #056C39",
"~  c #0A6D3B",
"^  c #156532",
"/  c #1C6731",
"(  c #1C6C31",
")  c #146138",
"_  c #0C7237",
"`  c #07723B",
"'  c #0B743A",
"]  c #0E7A3C",
"[  c #127537",
"{  c #1F7130",
"}  c #127538",
"|  c #147D3B",
" . c #187F3B",
".. c #206529",
"X. c #226C2D",
"o. c #22722E",
"O. c #236E32",
"+. c #286D33",
"@. c #247433",
"#. c #287634",
"$. c #267C34",
"%. c #297B35",
"&. c #26763A",
"*. c #267938",
"=. c #2B7C39",
"-. c #307F3B",
";. c #354E40",
":. c #3E4E42",
">. c #3D5445",
",. c #0E7142",
"<. c #1E7C42",
"1. c #2F7F42",
"2. c #425645",
"3. c #405A49",
"4. c #656863",
"5. c #16833C",
"6. c #19853E",
"7. c #1A893F",
"8. c #268335",
"9. c #2C813A",
"0. c #268838",
"q. c #2E8A3F",
"w. c #32833E",
"e. c #138340",
"r. c #1C8640",
"t. c #1D8C41",
"y. c #1E9243",
"u. c #228645",
"i. c #208D44",
"p. c #2F8E41",
"a. c #208B48",
"s. c #288E4A",
"d. c #368244",
"f. c #219342",
"g. c #2A9443",
"h. c #279946",
"j. c #2A9C45",
"k. c #27964A",
"l. c #299249",
"z. c #2C9B4A",
"x. c #2F9A50",
"c. c #2EA346",
"v. c #2FA846",
"b. c #2DA14A",
"n. c #30A547",
"m. c #31A846",
"M. c #36A64D",
"N. c #31AA49",
"B. c #39A651",
/* pixels */
"7 . . . . . g ; } O.d.& . . . . . . . . . . h ; | V %.O . . .   . . . . . . b * r.d =.O o $ . . . . . . . . k ; y.p 9.X . . + = ",
"7 . . . .   h ; } X.8.# . . . . . .   . .   j *  .I %.+ . . . . . . . .   . b * 7.d %.O $ + . . . . . . . X k ; y.p 9.X . o - . ",
"7   . . .   h > [ Y %.& .   . . . . . . .   j * 5.I %.O . . . .   . .   . . j * 7.d -.3 . . . . . . .   . . x ; y.u 9.X . + . . ",
"7 . . . . . f ; [ I %.# . . . . . . . . . . j ;  .I %.O . . . . . . . . .   v * t.d w.& . . . . . . . . . X h ; y.u 9.O . . . . ",
"7 . . . . . h ; [ Y $.& . . . . . . . . . . j 2 u.I $.O . . . . . . . . . X v * i.G -.O . . . . . . . . . X h > y.p =.X . . . . ",
"J g h g g f n ; [ I #.o.Y Z C j j j j r f h ) <  .V =.o.Y Z B c j j f h f h b ; s.V 9.X.Y Z M c j g h g r f x ; f.p q.O.Y Z M j ",
"H ; ; ; % ; % @ [ o., , , , > ; ; ; ; ; ; 6 2 ;  .I 4 u , > ; % ; ; ; ; ; ; ; ; t.d q q , , ; ; ; ; ; ; ; ; @ 1 y.d q q , > , ; ",
";.E ' W W W R W ] m.j.y.7.| | _ ! ! W R ,.,.W R 5.v.j.7.6.5.| ` ~ ~ W W R R W R 7.c.h.y.7.,.| ' _ ! W W W R W R t.c.h.t.6.| ] _ ",
"J g z f 1 1 1 w [ 0.B M p t r r w w w z g 2 1 w | 8.N M t r t w w w , w 1 1 1 f e.$.M c s r r w w w 1 w 1 1 f h y.o.M M j t r w ",
":.C k h h h h ; [ I V o.Y U m b v k C m k h h @ 5.V ..o.T Z m m x x k f h h h * r.d X.X.U U B b v x h h h C C > f.u #.X.Y Z Z v ",
"K # @ @ @ X k ; [ I 8.y # @ O O @ O @ @ O O v ;  .V =., # @ O O O @ O O @ @ v @ r.d %.4 # @ @ O O O O O = < b ; f.u 9.: # O O @ ",
"8 . .   .   h ; [ Y %.& . . . . . . . . . . k % | I %.O . . . . . . . . . . v ; 7.d %.O . . . . . . . O = X h ; y.u 9.O . . . . ",
"7 . . . .   f ; [ I $.# . . . . . . . . . . x %  .I %.o . . . . X . . . . . v @ 7.d %.O . . . . . . + # . X k > f.p 9.X . . . . ",
"7 . . . . . g > [ I $.& . . . . . . . . . . x % 5.V %.O . . . o $ o . . . . k ; 7.d %.O . . . . . + - . . X h ; f.p 9.X . . . . ",
"7 . . . . . r > [ T $.& . . . . . . . . .   h %  .I %.O . . o + X . . . . . v @ 7.d $.O . . . . + - . . . X v ; f.u =.O . . . . ",
"7 .   . . . r > [ I $.& . . . . . . . . . . k &  .I %.O . . # o . . . . . X c ; 7.d %.O . . . . . . . . . . h ; f.u 9.O . . . . ",
"7   . . .   f ; [ I =.4 . . . X . . . . . . j %  .I %.O X $ o . . . . X . . k ; 7.d %.O . . . . . . . . . X x 1 y.p =.o . . . . ",
"7 . . . .   h ; [ Y w.5 . . . . . . . . . . j %  .I %.# # o . . . . . . . . k * 7.d %.o . . . . . . . . . . h ; y.p 9.X . . . X ",
"7 .   . . . h ; } @.9.& . . . . . . X . .   v % 5.V =.: o . . . . . . . . X k * 7.d %.O . . . . . . . . . X h ; y.u =.O . . $ + ",
"7 . . . . . f < <.@.$.# . . . . . . . . . . k % | V %.# . . . . . . . . . . k * 7.d %.+ . . . . . . . . . X h > f.u 9.X . + o . ",
"7     .     h 6 <...$.# . .   . .   . . .   k %  .I %.O . . . . . . . .   . b * 7.d %.O . . . . . .   .   . h ; f.p -.o - + . . ",
"P c v v k b ) 2 | I #.$.( / Z m b b v v k k n @  .I $.*.( ^ U m b b v k k v n * 7.d 9.%.( ^ Z m m v v v k b k > f.p p.1.&./ Z m ",
"8 ; ; ; ; 2 2 ; ' @.y e e , , > > ; ; ; ; ; ; > | X.y e e > > > > ; ; ; ; ; ; > i.+.p y , , , ; ; ; ; ; ; ; ; 1 i.V N l , , > < ",
";.E ! R R R R R | m.g.y.e.| ' ` ~ W W W R R R R 5.c.h.t.6.| ' ' Q W W W R R E ~ i.c.j.7.5.| ] _ ~ W R ! R R R R i.B.z.t.e.] ] ` ",
"J 1 1 1 1 1 1 1 } $.d t t e e w 1 w 1 1 > > 1 w 5.$.t p t r e w > w > 1 1 1 g k 0.T d t e e w w 1 1 1 1 > 1 > h f.X.d t t e w w ",
"J v v x k v k ; _ Y T *.( U U m b v k m D v v @ | V @.*.T U U b b v c v v m D ; 7.d $.$.( ^ U m v v v v x x h ; f.i 9.#.( U Z m ",
"7 . . X . . h ; [ Y $.& X X o . . . X # + . k ; 5.V $.# X X . X X . . X # = m * 7.d $.# X . X . X . X . . X h > f.u 9.O X X X . ",
"7 . . . . . f ; [ Y $.& . . . . . o $ . . . h % | I $.O . . . . . . . X + X j * 7.d %.O . . . . . . . . . . h > f.p 9.X . . . . ",
"7 . . . .   h ; [ ..$.& . . . . o $ o . .   j %  .I %.O . . . X X . . . . X v * 7.d %.O . . . . . . . . . X h ; f.p =.O . . . . ",
"7 . . . .   h > [ I $.# . . . . # o . . . . j %  .V %.O . . . . . . . . . . k ; 7.d %.O . . . . . . . . . X h > f.p =.X . . . . ",
"7 . . . .   f ; | I 8.& . . X # o . . . . . j %  .I %.+ X . . . . . . . . . k @ 7.d %.o . . . . . . # . . . k > f.p 9.O . . . . ",
"7 . . . .   g > [ I 8.# . . o o . . . . .   k % 5.V $.O . . . . . . . . . . v ; 7.d %.+ . . . . . $ + . . X h ; f.u =.X . . . . ",
"8   . . .   h ; [ Y $.& . . . . . . . . .   x % | I %.O . . . . . . . X . . v % 7.d %.O . . . X $ . . . . . v ; y.u 9.O . . . . ",
"7 . . . .   f ; [ I $.# . . . . . . . . . . x %  .I %.O . . . . . . . . . X v @ 7.d %.o . . . $ + . . . . X k ; y.u 9.X . . . . ",
"7     . .   f > [ I $.& . . . . . . . . . . h %  .I =.+ + # . . . . . . . . v @ 7.d 8.O . . - + . . . . . X h ; f.u 9.X . . . . ",
"8 . . .     h ; [ Y $.& . . . . . . . . .   v % 5.V %.3 + . . X . . . . . . v ; 7.a =.O . - + . . . . . . X h ; f.u 9.O . . . . ",
"8 X X X X . h ; | I 8., O O X X X X X X X X v @  .I d.5 O O X X X X X X X X x ; 7.d %.& # & O X X X X X X O h 1 f.p 9.: O O X X ",
"J v x h h h v 1 [ I ..$.T U m m b v x h h x v %  ...=.#./ U m m v x x h x x k * 7.d #.{ T U Z m b v x h x h h ; y.i 8.@./ U m n ",
"J > 1 ; > > , l | 8.u u e w , > > > > > > ; 1 > t.9.l i w e > 1 1 > ; > > > > w 7.T t e w e w > > > > > ; > ; w i.Y u p q w w > ",
";.! ! ! W ,.,.! ] m.c.g.y.e.] ] ` ` ! ! ! ! R ,.a.N.b.f.t.5.5.] ` ` ! ! ! ! R R 5.v.b.y.t.5.,.] ' ` ! ! ! ! ! W 7.m.x.x.t.e.] ] ",
"8 ; ; * < 6 ; ; [ $., , , & ; ; ; ; ; @ ; ; % , 5.X., , , ; > % % ; % % @ ; % > 7.I , , , ; ; ; ; % ; ; ; * * 1 f...i y < > ; ; ",
"J j h m D z n ; [ I o.$.T U Z m c v b c k f n *  .V %.@.T Y Z C c c h k k k v % 7.d =.@./ U Z M c j h b f k k ; l.F p.@./ Z Z C ",
"7 . + $ + . h ; [ ..$.& X . . X . . . . .   k * 5.I %.# . . X . X . . . . + v ; t.d $.O . X . X . X . . X X h , x.a 9.O X . X . ",
"7 X - X .   g ; [ Y $.# . . .   . . . . .   h ; | I %.O . . . . . . . . . = m ; 7.d %.O . . . . . . . . . . m g k.p =.O . . . . ",
"7 . O . .   j ; [ I 8.& . . . . .   . . . . b ;  .I $.o . . . . . . . . $ + k @ 7.d %.O . . . . . . . . . O D > f.u =.O . . . . ",
"7 . . . .   h > [ Y 8.# . . . . . . . . .   v @  .V %.O . . . . . . . $ + . v * 7.d %.O . . . . . . . . . O b ; f.p 9.X . . . . ",
"7   . . .   f > [ Y $.# . . . . X . . . . . k % 5.I 9.O . . . . . X # + . X v * 7.d %.O . . . . . . . . . X k ; f.p =.O . . . . ",
"7 .   . .   f ; [ I $.# . . . + $ . . . . . j % | I %.O . . . . . - + . . . j ; 7.d %.o . . . . . . . . . . h ; f.u 9.X . . . . ",
"7 .   . .   k ; } Y $.& . . + + X . . . . . j % 5.I $.O . . . . + + . . . . k ; 7.d %.+ . . . . . . . . . X h ; y.p =.X . . . . ",
"7 . . . .   f > [ Y %.# . + # . . . . . . . v %  .V %.o . . . . X . . . . . k ; 7.d %.O . . . . . . . . . X h > y.u 9.X . . . . ",
"7 . . .     h ; [ I 8.& $ $ . . . . . . . . k %  .I %.O . . . . . . . . . X k @ 7.d %.+ . . . . . . . . . X x ; y.u 9.O . . . . ",
"7   . .     f ; [ Y %.5 $ . . . . . . . .   k @  .I %.O . . . . . . . . . . k * 7.d #.O . . O . . . . . . . h > f.u 9.X . . . . ",
"7 X X X X X h ; [ I w.p o O X O X X X O X X k *  .I %.& O O O O X X X O O @ k ; 7.d %.& + = 3 @ X X X X X @ x ; y.p 9.& O O O = ",
"J k v r h h h ; [ I I $.T U m b x v x r h h h *  .V Y { T U m b c k h h h h f * 7.d T @.O.X.D b v v x r h h r % y.p o.o.Y U ^ D ",
"J w w w w w 1 r | 8.B s s t t r r w w 1 w w 1 f | 8.B B s s r r r w w w w w w r 6.@.B V A c t t w w w w w w w h t.o.I c s t x t ",
"L R R R R R R n | n.q.7.5.| _ ` W R R R R R R R 6.M.q.7.5.| _ Q W W R R R n R R 6.c.g.s.r.} _ Q W W R R R R R n 7.c.0.7.| } _ Q ",
"H ; ; > ; ; ; ; [ X., y q , > > < ; , ; > ; ; < u.+.y i q , , , > ; ; < ; ; : ; 6...N p q , , ; ; < ; < > ; * 1 f.N p e q , , , ",
"P j j g h h n ; [ Y $.#.T A Z C c j j f j g S 6 r.I =.@./ Z Z c c x h h h h n ; t.G w.@./ Z Z c c h h k h h v ; f.u p.O.Y Z Z c ",
"7 .   . .   g > [ Y %.&   . . . . . . . . . D ,  .V %.O . .   . . . . . . . j ; 7.N %.o . . .   . . . .   . h > f.p 9.X .       ",
"7     $ o   f < [ I %.& . . . . . . . . X # C &  .V %.O . . . . . . .   . . v @ 7.d %.O . . . . . . . . . . h > f.p 9.X . . . . ",
"7 . + $ .   h ; [ T $.# . . . . . . . . + o k # 5.I %.O . . . . . . . . . . v ; r.d %.O . . . . . . . . . . C 6 k.p 9.o . . . . ",
"8 + o . .   h ; [ I $.& . . . . . . . o o . k ;  .V $.+ . . . . . . . . . X k * t.d %.o . . . . . . . . . . C g f.p 9.. . . . . ",
"K $ . . . . g ; [ I #.# . .     .     . .   g *  .V %.O . . .     . . . . . j * 6.d #.O .   .   .     .   $ b ; i.i =.O .     . ",
"4.0 8 8 8 8 J 9 :.2.2.0 8 8 8 8 8 8 8 0 8 8 ;.0 >.:.2.0 8 8 8 8 8 8 8 8 8 8 P J 2.P 2.0 8 8 8 8 8 8 8 8 0 2.:.J 3.K 2.0 8 8 8 8 "
};
