/* XPM */
static char *_6[] = {
/* columns rows colors chars-per-pixel */
"64 64 222 2 ",
"   c #010507",
".  c #030608",
"X  c #010A0C",
"o  c #01100F",
"O  c #000F12",
"+  c #011314",
"@  c #021A15",
"#  c #021619",
"$  c #011B1D",
"%  c #02221D",
"&  c #032D1F",
"*  c #011D22",
"=  c #012324",
"-  c #022C24",
";  c #02252A",
":  c #012B2D",
">  c #023323",
",  c #01322E",
"<  c #023A2D",
"1  c #022531",
"2  c #022D32",
"3  c #032E39",
"4  c #1A2C36",
"5  c #013335",
"6  c #013A35",
"7  c #01353A",
"8  c #013B3D",
"9  c #1E333F",
"0  c #212F3F",
"q  c #03422E",
"w  c #024336",
"e  c #024D34",
"r  c #01423D",
"t  c #024B3D",
"y  c #03533C",
"u  c #025A3B",
"i  c #033543",
"p  c #023D42",
"a  c #033D4A",
"s  c #1E3542",
"d  c #233343",
"f  c #014343",
"g  c #014B45",
"h  c #024549",
"j  c #014B4B",
"k  c #11424A",
"l  c #025245",
"z  c #045C44",
"x  c #01534C",
"c  c #025B4C",
"v  c #034553",
"b  c #024D51",
"n  c #044B57",
"m  c #1D4651",
"M  c #015352",
"N  c #015B53",
"B  c #02545B",
"V  c #0D555A",
"C  c #015D5A",
"Z  c #17525C",
"A  c #2A4D5E",
"S  c #026144",
"D  c #03624C",
"F  c #0B6A4F",
"G  c #03704D",
"H  c #016255",
"J  c #036A53",
"K  c #0A6B53",
"L  c #02635B",
"P  c #016B5C",
"I  c #0E7453",
"U  c #01715D",
"Y  c #087759",
"T  c #107452",
"R  c #107D5D",
"E  c #035B62",
"W  c #1A5662",
"Q  c #026662",
"!  c #066365",
"~  c #026C63",
"^  c #056D6A",
"/  c #096D6A",
"(  c #027463",
")  c #037A63",
"_  c #03736B",
"`  c #0A746B",
"'  c #02796C",
"]  c #076B71",
"[  c #037473",
"{  c #027A74",
"}  c #0A7B76",
"|  c #047B7B",
" . c #2A7074",
".. c #23777C",
"X. c #466D7B",
"o. c #0A8867",
"O. c #02836A",
"+. c #15896B",
"@. c #13916C",
"#. c #028877",
"$. c #01837D",
"%. c #0A827D",
"&. c #079378",
"*. c #149877",
"=. c #12A674",
"-. c #13AA78",
";. c #1AAC7D",
":. c #1C7A83",
">. c #3C7785",
",. c #098582",
"<. c #038986",
"1. c #0D8B86",
"2. c #0B8E8A",
"3. c #02988B",
"4. c #1F8290",
"5. c #0A9894",
"6. c #129494",
"7. c #368C95",
"8. c #07A788",
"9. c #1CA288",
"0. c #1BB382",
"q. c #19BB88",
"w. c #02A393",
"e. c #05A896",
"r. c #02A39C",
"t. c #0DA49F",
"y. c #01AB9D",
"u. c #12A79A",
"i. c #08B598",
"p. c #1DBF91",
"a. c #28A98C",
"s. c #22BE8D",
"d. c #2BAD93",
"f. c #25BB94",
"g. c #39B599",
"h. c #0DAEA5",
"j. c #01ADA9",
"k. c #0DAEA9",
"l. c #15A9A3",
"z. c #12AFAA",
"x. c #03B5A7",
"c. c #0EB3AC",
"v. c #09B9AE",
"b. c #13B8A8",
"n. c #08BDB5",
"m. c #17B9B4",
"M. c #13BCB4",
"N. c #13BEBA",
"B. c #31B2A8",
"V. c #33B8B3",
"C. c #519197",
"Z. c #688597",
"A. c #698B9D",
"S. c #66919C",
"D. c #46B89E",
"F. c #6791A3",
"G. c #779EAD",
"H. c #51A3AB",
"J. c #4CB5A4",
"K. c #6AB0AF",
"L. c #6CB6BB",
"P. c #1FC28F",
"I. c #19C698",
"U. c #21C28F",
"Y. c #21C593",
"T. c #21C898",
"R. c #04C3B9",
"E. c #12C3BB",
"W. c #13C6BB",
"Q. c #03D2B8",
"!. c #2CC9A9",
"~. c #32CFB2",
"^. c #49CBB6",
"/. c #5FCDB7",
"(. c #64C1AD",
"). c #03CAC6",
"_. c #17CBC4",
"`. c #09D4CA",
"'. c #17D0C8",
"]. c #05DBD7",
"[. c #19DBD6",
"{. c #28CBC6",
"}. c #35C7C5",
"|. c #29D4CE",
" X c #3BD5C3",
".X c #24DAD8",
"XX c #3CD8D3",
"oX c #1EE3D0",
"OX c #2BE4D1",
"+X c #27E6E3",
"@X c #36E9E6",
"#X c #45DCC6",
"$X c #4ED1CC",
"%X c #73D0CD",
"&X c #49E2C7",
"*X c #5BE9CE",
"=X c #59E5D6",
"-X c #5DF0DC",
";X c #64EBDA",
":X c #78EBD2",
">X c #46EDE9",
",X c #58E8E4",
"<X c #52F1EE",
"1X c #6BEDE3",
"2X c #64EDE9",
"3X c #68F1EF",
"4X c #7AF4E4",
"5X c #77F4F3",
"6X c #95AFC5",
"7X c #9BBDCB",
"8X c #8DCED4",
"9X c #A9C8D3",
"0X c #81F3DE",
"qX c #B9DAE4",
"wX c #83F7E7",
"eX c #9BF8E8",
"rX c #B0E9EB",
"tX c #ABF9E6",
"yX c #A7FBF1",
"uX c #CCE9EF",
"iX c #E3EFF3",
"pX c #E6F3F6",
/* pixels */
"X X X 8 7XB.E @ + - g j x x L [ ,.2.,.[ ! C j x x g + F -.- ; t C ~ _ { <.3.5.j.x.v.v.v.x.y.w.3.#.J z t r w 6 5 , - = * $ = + O ",
". X O 7 K.pX..= ` z.,.} } 1.6.l.V.^.V.l.6.1.%.%.%.%.8 X F a.: ! 2.6.u.z.M._.[.@X,X3X3X@XOX[.'.W.W.W.#.l t w 6 6 , : - = % $ # + ",
"X X o r L.rXC.g u.X . .     . . . X X . . X . X X X % # X T ;.@ + + % - 6 g c D H H D l t r < , % t m.' t t 6 6 , : % = 1 a 3 O ",
"v 3 i ] qXuX6.<.] i K i i i i i i i i i i i i i i i i i 3 O R U.f.~.&X;XwXeXyXyXeX4X-X&X~.T.P.q.&., x E.%.E E B B n v v a 3 ; + ",
"X X + k H.iXS.} l @ ;.+ O + + = * + # + * = # # # $ # $ $ 1 . @ - > q e S F I o.R Y G S u e e u U.I % < m.K < , - - = $ # X O # ",
"O O + n 9X$X/ } N + ;.$ # $ 7 * * $ * = = 1 5 = = = = 3 7 : ; - - ; : ; 5 6 < 6 w r t t t y l - y Y.o.% 6 m./ 8 6 , : ; * * * # ",
"* * 1 a H.uX..} L @ 0.1 3 a 1 2 3 1 3 3 5 3 i h 7 i h i 7 7 p a h h b h M V C C Q Q ~ _ ~ _ ( ( , l Y.) : 6 N.` h f p p i v i O ",
"* * * 3  .C.X.} C @ 0.1 * * * * * * ; * * * * * * * * * ; ; 1 1 1 2 5 7 8 8 f f g x x c N c N N l $ w U.Y # 5 m.^ 5 3 1 * O O # ",
"+ + + 1 G.S.M / ! % ;.% = $ = = = - , 5 < 6 , < < < < 6 6 8 8 w f g g g x x c C N H P P P P P P H l % w s.I @ , m.L : : $ . + $ ",
"+ + @ $ 6 G.X./ N @ ;.= = $ = < l t w w w w w r r r r r t t g g l x x c c N H H H P P P P P U U ) P l @ 6 U.K @ : / : - ; : $ # ",
"X + + = Z.3 2 / C @ ;.= * $ , w $ * = * = = $ ; = ; = ; ; ; : ; 2 5 6 8 8 f f f r j g l l x x l g l H r # < s.D # - = ; * $ @ # ",
"# $ $ $ m 6Xk / L % ;., : : z : 2 = : 2 : 5 2 2 5 5 = 5 2 5 5 7 8 8 f 7 h j x j M x M C j N M M M x U j f @ < *.8 5 2 : ; = $ $ ",
"# $ * = X A Z./ L % 0., 2 : z : 2 = ; : ; 2 : 2 2 2 ; : : 2 2 5 5 7 8 7 f f g g g j j x g x x x x g l x f 8 + , , 5 : ; = = $ $ ",
"* = = = = 4 Z./ Q % 0.5 5 2 F 2 2 ; : : 2 2 2 2 2 5 ; : 2 2 5 5 5 7 8 7 r f f g g g g x g j g j g g x M f 8 6 5 5 , ; ; = = $ # ",
"# = = ; = 9 Z./ Q & ;.6 5 : c 2 2 ; ; ; ; ; = : : : ; : ; : : ; 2 2 7 2 8 8 8 p 8 r f f 8 f f f r 8 f g 6 2 5 : ; ; * = * $ # # ",
"= ; , 5 , 9 A./ _ - s.r f 5 H 8 7 7 7 5 2 7 1 5 5 5 5 5 7 5 8 : 8 8 p p p f f h f j j h j g g f h r j x 8 7 6 7 5 : ; = = * = $ ",
"; , , 6 5 s A.7 c R *.f g 8 K p 8 8 5 7 , 5 : 5 5 7 5 7 5 7 7 5 7 8 8 8 p r f f f f f f f f f f f 8 g j 8 7 5 5 : : ; = = * $ * ",
": , 6 8 6 s F.< o.-.x l j 8 P 8 8 8 8 7 5 5 : 7 5 7 7 5 7 7 7 5 7 7 8 8 8 r 8 f p f f f f f f f 8 8 f l 6 7 5 : : : = = = $ $ * ",
", 7 6 r w 4 >.o.=.t c x x f ( h f 7 8 8 7 5 : 7 7 5 : 7 7 7 7 2 8 7 8 2 p p p p 7 p f p 5 f p 8 p 3 f g 7 = 5 2 : : = = * = # * ",
", 6 8 g g < @.-.t C C N x x ( g j 8 r 8 8 7 7 7 7 p 2 7 7 6 8 8 8 8 8 5 8 8 8 8 p p p f 8 8 8 8 8 7 r g 7 5 2 : : : ; = = = = = ",
"5 6 r g x U U.z J P H H C c U j j p f r 8 6 7 7 7 8 5 8 8 8 8 8 8 8 8 5 8 8 p f 8 8 f 8 7 8 8 8 8 8 8 g 5 , , : 6 c.c.L = = = = ",
"6 r t g c o.f.w.#.( P J H N ) j x 8 f p 8 8 6 7 8 8 5 8 8 8 8 8 8 8 8 5 8 8 8 8 8 p 8 p 7 8 8 8 5 6 8 r 5 : : : 8 m.- : ; = * = ",
"5 w g l z o.~.1.3.) ~ P H j _ M j f f f p 7 2 7 7 7 7 p p p p 1 p 8 p 7 p 8 8 8 2 8 8 7 2 i 7 5 7 ; 8 f 1 : : 5 5 m.6 +.= ; $ = ",
"6 r g l x *.^.} e.O.U P P x ) x j j f f p p 5 8 8 8 8 8 r 8 f 8 p f p f f 8 8 p 8 8 8 8 8 6 7 7 5 3 8 w 5 5 2 8 f W.y a.; = = = ",
"8 r f l c d.*X%.y.O.U P H M ) M x j f f r p 7 8 8 8 r p 8 f f p f f f f 8 r f p 8 8 8 8 8 8 7 8 6 5 8 f 5 5 2 f x '.y a.= - = = ",
"6 8 g x z D.;X1.x.O.P P H x ( M j j j f p f 5 8 f 8 r f f p f 8 f f f f f f f f 8 p p 8 r 8 8 8 7 5 8 r 5 5 7 j H .Xl a.: ; = ; ",
"5 7 8 g l K.1X6.x.' H C M x / g h 8 p p 7 7 7 7 7 7 2 p p p 8 p 8 i p 3 p p 8 8 7 7 8 7 1 7 7 5 3 1 7 f 2 = 7 M _ .XH d.; ; $ = ",
"5 6 w g x (.1X5.R.$.H N N x ( x j p f f f 8 8 8 f f 8 p f f f f f f h 8 f f f p f h p 8 8 8 8 8 8 8 p g 8 8 p Q <.+X( d.5 2 : ; ",
"5 6 8 f l (.1Xl.R.#.C x x x ~ j j p f f 8 8 8 f f f 8 f f f f f h h h p f f f f f f r f 8 8 8 8 8 8 f j p p f [ j.@X' g.7 5 : : ",
": 7 6 r g g.2Xm.).$.C x x j Q g j 8 f f f 8 r p h f 7 f h h j f j j h 7 h h g h f f f f 7 p r 8 r r g x f 8 x <.n.>X#.g.8 5 : , ",
"; 2 7 7 5 d.;X~.`.<.b j j 7 L h p p p p 8 p 2 p p p p f f h h 7 f h h h h h h f 3 p p p 8 p 8 p p 5 h M f h n 3.).3X&.g.8 7 6 5 ",
": , 5 6 5 *.=XXX].:.j f f p H f f f 8 8 8 p 8 f f f f f h j h h j j j j j j f h h f f f f p p h h h M M b b C 5.].5Xw.D.f f 8 6 ",
"- ; , 5 3 o.$X,X[.<.j r f 7 C r 8 8 p 8 8 p 8 f f f f f j j j h j b b j b j h h p h f f p f f f j h M C M M L 5.].5X8.J.x f r 8 ",
"= ; : : ; Y $X2X.X| h 7 8 5 c 8 8 8 8 8 8 8 5 f f f f h h h j p j j b h h h j h 7 f f f f f h h j p M C M C ~ r.].5Xi./.x g r 8 ",
"* = ; : 2 D #X2X.X:.h 5 7 7 M 7 7 : 7 8 8 p 8 p f a 5 h h h j h v j v 7 h h h h f h h p 2 p h h j b M C M j ^ r.`.<XR.%XM j w f ",
"= = ; : : c  X,X[.| f 7 7 5 l 7 p 5 8 8 p r f f f g p h j h j b j M M f b j j h h h f h 8 f h f j j M L C H _ y.).>XQ.:XH x g f ",
"* = = = ; S  X#X`.^ i 5 7 5 l 8 8 5 8 8 r p f f f f p j h j b b b b M a b j j h h f f f p f f h j x C L C L _ y.R.@X`.0XP N j g ",
"* = = = = z ~.{.).E 7 2 : 3 g 7 7 : 8 8 8 8 8 8 p f 5 f h h h h j j h 7 h h h h f p f p 7 p f g g j M H C C ' w.8.+XoX0XJ c g g ",
"= = = ; * z V.N.n.E 8 2 7 = j 8 7 8 8 p p p 2 f h h h h h n b i v b b b b h h b 7 h f h h j b b B j E ^ L ~ { w.3.+XOXwXU N x j ",
"= = = = = u B.c.j.M 5 5 5 : x 7 7 8 8 8 8 f p f f f f f g h g v j j j b h j j h h f f f h j j M M M C Q L ~ ( 3.#.oXOXwXU H x g ",
"* = = ; = y d.h.j.h 5 2 7 ; j 6 7 8 8 8 8 r 8 f f f f f f j g h j j h b j j f f f f f f f j j b M x C Q L L ( #.) [.W.wXU N x g ",
"$ $ * % # e 9.5.3.p ; 2 2 = g 2 2 5 5 7 7 5 : 7 7 8 8 8 8 8 8 5 p f p p p 8 p 8 2 8 8 8 p p f f j f M C M C P ' H '.I.:XD l g r ",
"= = ; ; : q &.2.<.p 2 7 7 7 M p p 2 f h h f h h h j 7 h j j b j b b b 7 b b b j j h h h 7 j v M B B E Q Q N P _ x '.8.:XH N g g ",
"= = = = ; O p 1.$.5 2 2 2 2 j 7 8 7 8 8 p p r f f f 8 f h h h f h f h 8 f f f f f r f p 8 f j j j j M C C N C P r n.O./.x g g r ",
"= = = = = 6 M.W.Q 5 , 5 5 2 j 7 p 7 p f f r f f f f 8 f f f f f f f f 8 f f r f f 8 f p 8 8 f f j j M C M M N C : H 9.a.x g r 8 ",
"# # # $ $ + + # ; ; ; : 2 : j 5 5 2 7 7 8 7 7 7 7 7 2 7 7 5 7 7 7 6 7 : 7 7 7 7 5 7 2 5 ; 5 7 7 8 7 h h f 8 j g g o.0.c 8 6 , 5 ",
"= = = ; * : 5 7 8 7 8 8 p 5 C h h j j j j b p j j b j j j f h 7 h h h h f h h h 7 f h p f p h f h p v B b b b b o.=.k >.f f 8 8 ",
"* $ = = * - ; , 5 5 7 8 8 7 M f f f f g j j f j j j h f f f f p f f f r f 8 8 f 8 8 8 8 8 8 8 8 p 8 h j f h f o.=.6 W A.8 6 5 , ",
"$ * = = * ; 2 5 5 7 8 8 8 8 N f g g g j j j h g j j j f f f f p 8 8 8 8 r p 8 8 8 8 8 8 6 7 7 6 8 7 p h f 8 D ;.5 C d A.6 7 , : ",
"$ $ $ * * - ; : ; 5 7 8 8 7 N f f f h j j j p h j f p f p f p 7 8 8 7 2 7 7 8 7 2 5 7 5 2 5 5 5 5 2 7 p 7 2 o.F 8 k.d Z.2 : = = ",
"$ = = = ; : : 8 : 8 r f f h C j M j x M M b M M b M f j j f f f h 8 f 5 8 p 8 8 8 7 8 8 2 7 7 5 5 7 8 p 8 : I J ; k.0 A.7 2 = ; ",
"# $ = ; ; : 5 7 , 8 8 f g g H x x j M M M M M j x b h j j h f f p r 8 5 8 8 8 7 8 7 6 7 2 7 5 7 5 2 7 7 , : I G = h.d A.5 ; = = ",
"$ = = = ; : 5 6 5 8 r f g g P x C j c c N N M M M M f j j g f f f 8 8 3 8 7 6 8 7 7 5 7 2 7 5 5 5 2 5 5 : ; I D * k.d G.8 ; % = ",
"# $ = = = : : 5 6 R D f f f C x x x C M N M j M M j h j h h p 5 8 7 7 2 5 7 5 5 ; 5 5 5 : 2 : 2 : = 7 2 : * T S $ h.# 6X>.5 # $ ",
"$ ; = ; ; 2 7 7 7 w s.J x g C L C C H H C C M C M x x j j j h p 8 8 8 7 7 5 7 7 5 5 5 5 5 5 2 2 5 2 7 : : ; T S $ h.; Z 7XZ = = ",
"$ $ = ; - 2 5 N N + t Y.Y x C P ( P Q L P L C C C C M M x j h h f f 8 8 7 8 7 7 7 6 5 7 7 5 7 7 7 7 2 : ; ; T S $ k.Z 9X:.h = $ ",
"* i p ; = : 6 g E.C + y Y.Y C H H ~ ( ~ ~ P C H L C N M M j j h h f p p 8 7 8 7 7 8 7 7 7 7 7 5 2 ; : : ; = I S % c.p H.qXW ; : ",
"* 3 3 a h v n $ b E./ ; c T.O.[ { { { { [ [ ^ ^ ! ! E E C B n v n v h a a a a a i i i a a i i a i 7 i a i 7 T J ; c.W K.%X4.a i ",
"# . . * * = = : o 6 E.c # e Y.I D D D S c l l g g r 6 8 7 , : : ; ; = ; * $ * * $ $ $ $ $ $ $ $ * 1 ; ; 2 # T y # k.V uX8XB 2 # ",
"# * * ; : 2 7 8 5 @ g E.( % z P.o.U ) U U P P H N N l j g f r r 8 8 7 3 8 2 2 : 5 : : : ; : : 7 5 ; ; ; = 5 T z # c.j %XpX7.= + ",
"* v v 3 2 7 8 f 8 g $ l E.( ; D T.o.O.o.&.&.i.i.b.p.i.8.&.O.~ c g r 8 3 p 7 6 3 5 3 5 3 : 3 h 2 2 2 2 : 1 = T D * c...iXrX] 1 7 ",
"O X O i 7 7 i f h j h @ x E.' % D 0.P.I.T.&X*X0XeXtXtXtXwX*X&X!.p.s.*.5 1 1 1 1 1 1 ; 1 1 1 1 1 1 1 1 1 1 ; < 6 = z.B 8XpX:.3 * ",
"# X X * = , , 6 6 r g t $ l E.` - - - > > , > , < 6 , , - % $ @ + % @.@.2 : 8 7 ; : 5 8 2 ; ; , 5 : : = = * + % ! 1.W 8X%X .* o ",
"# * * * = ; , 6 6 r t g l @ l W.i.e.h.v.W.W.'.|.|.|.{._.M.k.t.6.1.! @ @.@.: : ` ,.,.} [ } 2.t.N.$X}.m.6.%.[ _ 6.u.: v qX%Xx $ # "
};
