/* XPM */
static char *_4[] = {
/* columns rows colors chars-per-pixel */
"64 64 241 2 ",
"   c #15173E",
".  c #15193F",
"X  c #1A1B3E",
"o  c #201F3F",
"O  c #161742",
"+  c #161943",
"@  c #181947",
"#  c #1A1C44",
"$  c #1B1E4C",
"%  c #1D1D52",
"&  c #231D46",
"*  c #221C4C",
"=  c #221F54",
"-  c #271E58",
";  c #1E2144",
":  c #1C214D",
">  c #1E2153",
",  c #1D205A",
"<  c #232343",
"1  c #24224C",
"2  c #28224C",
"3  c #222255",
"4  c #2B2354",
"5  c #272957",
"6  c #24235B",
"7  c #2A245D",
"8  c #2A2A5D",
"9  c #33245B",
"0  c #37295B",
"q  c #39325A",
"w  c #2C2563",
"e  c #2A2666",
"r  c #2D2963",
"t  c #322664",
"y  c #382667",
"u  c #332A65",
"i  c #3A2A65",
"p  c #352B6A",
"a  c #3A2D6B",
"s  c #363364",
"d  c #35326B",
"f  c #3C326D",
"g  c #3D2E71",
"h  c #3D3271",
"j  c #402E5B",
"k  c #472A67",
"l  c #422D6C",
"z  c #4B2D6D",
"x  c #532B6E",
"c  c #463669",
"v  c #42316D",
"b  c #54336D",
"n  c #432E72",
"m  c #4B2C76",
"M  c #542B73",
"N  c #582B77",
"B  c #443272",
"V  c #4A3473",
"C  c #4A3975",
"Z  c #4C357A",
"A  c #533574",
"S  c #5B3572",
"D  c #5C3677",
"F  c #533A75",
"G  c #53367B",
"H  c #543A7C",
"J  c #5A3C7D",
"K  c #66317A",
"L  c #66397B",
"P  c #48485B",
"I  c #524F5E",
"U  c #494467",
"Y  c #53466C",
"T  c #595866",
"R  c #504E74",
"E  c #59427A",
"W  c #66477B",
"Q  c #6F567D",
"!  c #6C6B79",
"~  c #77757D",
"^  c #5E2F80",
"/  c #553686",
"(  c #583785",
")  c #563B83",
"_  c #5B3B83",
"`  c #573688",
"'  c #583689",
"]  c #5D3A8A",
"[  c #662F81",
"{  c #633C84",
"}  c #6A3883",
"|  c #643C8C",
" . c #693D8E",
".. c #773B88",
"X. c #723C8A",
"o. c #673D91",
"O. c #6A3E91",
"+. c #713E93",
"@. c #5C4282",
"#. c #5D5482",
"$. c #634283",
"%. c #6C4485",
"&. c #64438B",
"*. c #6B438B",
"=. c #6D4B89",
"-. c #784589",
";. c #724B8D",
":. c #7B4A8D",
">. c #765988",
",. c #6D4392",
"<. c #6F4A91",
"1. c #724495",
"2. c #7B4697",
"3. c #734B92",
"4. c #764499",
"5. c #7B4A9C",
"6. c #7B5497",
"7. c #6F6A8B",
"8. c #7C648B",
"9. c #7D6C99",
"0. c #7E7199",
"q. c #7C45A0",
"w. c #8B3B8A",
"e. c #85488D",
"r. c #8B4C94",
"t. c #864998",
"y. c #854B9A",
"u. c #944D99",
"i. c #9B4B9A",
"p. c #865698",
"a. c #8B549D",
"s. c #93549B",
"d. c #97579C",
"f. c #A1539E",
"g. c #856793",
"h. c #8C6D91",
"j. c #987795",
"k. c #A3799B",
"l. c #8A4BA2",
"z. c #8C53A2",
"x. c #8958A2",
"c. c #9155A3",
"v. c #9552A7",
"b. c #945CA5",
"n. c #9B5CA3",
"m. c #9957AA",
"M. c #A454A3",
"N. c #A557A7",
"B. c #AA5BA6",
"V. c #A956AC",
"C. c #AD5BA9",
"Z. c #B25EAA",
"A. c #8D66A4",
"S. c #9464A2",
"D. c #9B68A6",
"F. c #9D64AB",
"G. c #9D77A5",
"H. c #9B70B0",
"J. c #A367AB",
"K. c #AB63AD",
"L. c #B362AE",
"P. c #BD64AE",
"I. c #AD74AC",
"U. c #A868B3",
"Y. c #B565B1",
"T. c #B669B6",
"R. c #BB69B5",
"E. c #BD6DB9",
"W. c #B776BA",
"Q. c #C16DB9",
"!. c #C372BD",
"~. c #C47ABF",
"^. c #BF6BC3",
"/. c #BE78C4",
"(. c #C574C2",
"). c #C979C6",
"_. c #CC7BC5",
"`. c #D37DCA",
"'. c #928B92",
"]. c #AB8E97",
"[. c #9593A3",
"{. c #B788B5",
"}. c #A594BA",
"|. c #A494BB",
" X c #A9A7A9",
".X c #AFAAB3",
"XX c #B9B8B7",
"oX c #C6A6A5",
"OX c #D1ACAB",
"+X c #D0B3AE",
"@X c #D3C1BA",
"#X c #BD87C4",
"$X c #A999C2",
"%X c #BF92C8",
"&X c #BBABC9",
"*X c #BDAFD0",
"=X c #BEB1D1",
"-X c #CB87C7",
";X c #D384C9",
":X c #D686CA",
">X c #D48ECE",
",X c #DB8CCE",
"<X c #C59ACB",
"1X c #DB8AD3",
"2X c #DE93D2",
"3X c #DA9DD1",
"4X c #E68ED6",
"5X c #E395D5",
"6X c #E59AD7",
"7X c #E898D9",
"8X c #EB9DDB",
"9X c #C2A9CD",
"0X c #C3B5CC",
"qX c #D7ABD7",
"wX c #C3B3D3",
"eX c #C9B4D7",
"rX c #EEA2DD",
"tX c #E9ADDF",
"yX c #F0A5DF",
"uX c #F3A6E1",
"iX c #F5ABE3",
"pX c #F9AEE6",
"aX c #E6B9E4",
"sX c #F9B1E7",
"dX c #FBB4E9",
"fX c #FCBBED",
"gX c #FCBEF0",
"hX c #C7C4C6",
"jX c #D2CCD2",
"kX c #DAD6D3",
"lX c #E5DFDC",
"zX c #DDCCE3",
"xX c #F9C4EE",
"cX c #E4D4E8",
"vX c #FDC3F1",
"bX c #FCCBF3",
"nX c #FBD3F6",
"mX c #F9DBF6",
"MX c #FCDCF9",
"NX c #FAE1F9",
"BX c white",
/* pixels */
"BXBXeX4.q.l.H.zXaX^.1.1.o.U.U./ ^.m.] /.5.1.).5.1./.O.| | O.o.|  .o. . .1. . . . .o.o.o.O.o.O.O.O.,.O.O.5.{.cXqXx.| | _ / $XBXBX",
"BXBXeX+.q.l.9XMXrX/.{ X.| E.W.e ^.U.g 1Xx.@.1X;.@.1XJ G | | | | | | | | | |  .| |  . .|  .o. . .| O. .1.y.zXnX2XN.` ] ] ( $XBXBX",
"BXBXeXq.4.q.#X7XE.u.2 V | U.F.e U.b.a (.6.Z /.&.H (.G a G | | | |  .| | | | | | | | | |  . .|  . . . .,.1.<X5XL.W : G ' ( $XBXBX",
"BXBXeX+.5.4.1.:.L 4 # 3 B ( Z t Z B p E h p C a p Z a a B H | | | | | |  .{  .|  .|  .|  . .O.1. . . . . .%.-.S & # 6 G ( $XBXBX",
"BXBXeX5.4.1.+.{ < X & 1 7 Z a p u p u p u p u p p p p f h V / | | | | | |  .| | { |  .| |  .3.} |  . .| { | c + # $ 3 r ) $XBXBX",
"BXBXeX4.+.O. .O.( 3 : 3 7 p B a p p p p p p p p u p a a g B H / | { | | %.%. .;. .%.=.| ;.3.=.W | ;.*.%.;.{ %.c : 3 3 6 p $XBXBX",
"BXBXeX+.+.v.5.,.b.H p F w g m Z <.@.B 3.C B 3.V ) 3.f @.3.Z _ H ( { | { ].'.W oXQ ].].W OX8.j.oXJ oXQ g.oXL  Xh.3 6 6 e e |.BXBX",
"BXBXwX+.1.4Xb.,.4X$.$.T.a N ^ p :XF.V 7X;.&.8X) x.1Xa U.-XZ C H J ( { %.OX].b @XW k.oXY @XQ j.+Xc +X! Q +Xj OX].w 7 6 e e |.BXBX",
"BXBXeX+.+.).a.( `.H @./.a M N e (.v.n `.*._ `.) 5.(.p F.(.a V H G _ _ { G.>.q I.c g.k.5 I.Y Q k.8 j.Y E {.4 h.8.6 p e e r |.BXBX",
"BXBXwXO.O.c.{ B z.V C p.B B n e p.*.a z.H Z c.B _ x.a 3.p.p B G ( J _ _ ..k 7 [ 3 } r.> [ t k K 8 K 9 l d.3 i t 6 w p a d |.BXBX",
"BXBXwXO.O.( p p p p u d h p t t e e p t e e p p e p f p u p f V G ( _ _ X.y - M = &.p.> K 9 y K 7 M 4 l s.5 d r e r p p p $XBXBX",
"BXBXwXO.O.5.3.d p i h C p p.3.y H.@.g F.) C D.B @.S.d u p p i B A D J J } y 7 M 6 &.6.% N t y N 7 z t l a.8 r 6 7 r u d g |.BXBX",
"BXBXwXO.o.v.C.p d C C f p W.J.a 1Xp.l 4X%._ 4XH 6.:Xa u s a a v V G J J [ i 7 k e ] :., N w y M t u t i $.w 6 6 w w r p a $XBXBX",
"BXBXwXO.o.z.N.7 v C f v f U.n.p ).;.l `.$.H `.G 3.(.i u i i f v V A J ( [ v u w e _ *.% M t t x w u d B d 6 6 e 6 w r p a $XBXBX",
"BXBXwXO.o.v.n.4 F V v B n $.G u %.V p %.f a =.i V $.t u p f l B V A A J L u w e e g p e y w t k w p B h g e 6 w w 7 w p p |.BXBX",
"BXBXwXO.o.l.d.4 E.v v V V v a p u u u u p p u 8 u t t u p i l B B V G @.) a t p a a p w w w t t u p a f g n w 6 6 e e p p |.BXBX",
"BXBXwXo.| l.s.8 Q.0 z %.B V B a p p p f f p s u 0 u t u i i i v V C @.J G G n p p p g a w r e r p p p a g B B p w e r e a |.BXBX",
"BXBXwXo.o.l.s.7 Q.i _ J.a V V B f i f f s i u u u u u u u u u a l H A Z G G / m g g g f p e p p p p a g g B n n e 6 w w p $XBXBX",
"BXBXwX| | a.r.7 Q.y @.n.- n Z B B V C d #.0.g.0.0.0.0.0.0.9.g.9.g.A.A.A.A.A.S.A.x.6.6.6.&.p r p p p p a g n n n n w w w f $XBXBX",
"BXBXeX,.| y.r.7 P.t @.n.% t n B C C B 0.cXkXcXNXNXMXMXMXnXnXnXbXbXvXgXfXdXsXpXpXiXuX3X>X2X6.p p p p a Z X.n x.*.n a e d h |.BXBX",
"BXBXeX| | y.y.7 P.9 _ d.% w a B E B v =X&X5 R NXMXMXMXMXnXnXbXbXbXgXgXfXdXsXpXiXuX6Xc 3 ~.W.8 p p p a g y.m.K.g f h B f p |.BXBX",
"BXBXwXo.| y.e.6 Z.t _ s.% 7 p a B c v 0X X: U NXMXMXnXnXnXbXbX9X8.qXfXdXsXpXiXuXrX2Xq 3 I.W.$ 9 p a a a 5.(.x.w r h C p p $XBXBX",
"BXBXwX| | t.e.6 Z.9 J s.% w u p h B v 0XNX=XjXNXMXMXnXbXbXbXbX>.+ S.sXpXiXiXrXrXrX6X<XW.1XI.# 3 u a p *.V.B U.@.r p f f p $XBXBX",
"BXBX&X| | t.-.w B.w ) r.3 7 u a v B B =XNXNXNXmXMXnXnXnXbXvXgX9X8.3XpXpXiXyXrXrX6X6X5X2X,XI.$ > 6 p a B p t a u w u p a a |.BXBX",
"BXBXwX| | +.-.7 M.w J e.% w p p v B v wXMXMXMXMXnXnXnXbXvXvXfXfXgXsXpXuXyXrX8X6X6X5X,X,X:XI.$ : , 6 p a a u p w w w u a a }.BXBX",
"BXBX=X| | y...9 M.w J e.= w t p l B v 9XMXMXMXnXnXnXbXvXxXfXdXdXpXpXuXyXrX8X7X5X2X,X,X:X;XJ.$ $ , e e a f f p a u 7 u p a |.BXBX",
"BXBXwX] | 2...7 f.i $.-.% w u p f B f 9XMXMXnXnXnXbXvXvXxXdXdXsXpXuXyX8XrX8X2X2X,X,X:X;X_.B.; 3 3 6 e w p f a a a u u u i }.BXBX",
"BXBXwX|  .+.2.7 f.i J -.% w u p l v v wXMXnXnXbXbXvXvX<Xh.h.g.g.g.g.g.g.6.W.2X,X:X;X;X_._.J.# $ 6 6 g Z G ) @.7.7.s u t a |.BXBX",
"BXBXwX| | _ p r V 7 t u 6 7 t a h B l 9XnXbXbXbXvXfXvXG.X # : : < : 1 : # S.2X:X;X_._._._.n.$ % , 8  .X.X.-.u.hXhX4 u u a }.BXBX",
"BXBXwX] | { Z a r 7 7 7 7 w t a a B n 9XnXbXvXvXfXfXgXG.# 1 > 3 3 3 > > % S.:X;X;X;X_.(.!.d.$ $ 6 r u 3 - 3 4 U P # * i u }.BXBX",
"BXBXwX| ] ,.p.n J l w @.7 l H p h B a &XbXvXbXvXfXdXfXG.$ 3 6 6 6 6 r r 6 n.-X;X_._._.(.!.d.$ $ 8 p 2.y.u.V.J.lXkX# O = u |.BXBX",
"BXBXwX| | z.U.y U.=.i /.t %.F.w B n n <XvXxX7.Q tXdXdXG.$ 3 6 e e d p e e S._.(.~.W b R.Q.s.$ 5 8 - - * * * * T T X O # 3 |.BXBX",
"BXBX*X| ] l.m.w m.{ a T.t } a.6 p B g %XxXtXq 2 3XiXsXj.: , r r h h e p e A.).).E.0 1 J.P.s.# 4 3 6 M } } +.e..X Xo . + + |.BXBX",
"BXBXwX] ] t.u.w c._ a L.w { y.6 w h h <XfXfX<X%XiXiXpXD.: > r d h p g g p m.(./.!.n.s.Y.R.r.$ $ > 6 9 9 0 9 k '.'.X + ; + |.BXBX",
"BXBXwX| ] o.( w J l w { w l A e f d s <XfXdXsXpXiXrXrXG.: 6 d d d p g g g b.(.^.Q.R.Y.Y.Y.r.# : = 6 z z z S Y 7.! o < ; O |.BXBX",
"BXBXwX] ] | B w t e w t w t r u r u t <XsXsXsXiXyXrXrXD.: 3 r r p h g h g b.Q.E.R.T.Y.Y.L.r.# * = w N N L %.=.+XXX< ; ; + |.BXBX",
"BXBXwX] ] 4.F.p a.J i F.6 5.=.u r u p #XsXpXyXyXrXrX8XS.# 3 6 e t a g n n c.E.T.R.Y.L.Z.Z.r.$ $ , 6 7 = = - 3 P I 1 . O + |.BXBX",
"BXBXwX] ] 5.U.w F.$.a E.% n.%.7 r u a #XiXiXyXrXrX6X5X{.p.p.a.a.z.x.z.a.a.C.R.Y.L.Y.L.C.B.e.# * > e ..r.u.d.J.lXkX< . + + |.BXBX",
"BXBXwX] ] q.K.w J.$.a E.3 b.} > r p p #XyXyXrX8X6X5X2X,X,X;X;X`.).(.Q.(.E.E.T.Y.Y.Y.C.N.M.e.# $ % 6 = = * & 4 T T . . + O |.BXBX",
"BXBX*X] ] 5.L.6 F._ p E.$ s.} 3 6 p p #XyXrX6X6X5X5X,X:X:X_._.(.(.!.Q.E.T.Y.Y.Y.L.C.V.M.M.w.$ * 3 6 O...y.c.D.hXXX; O O O |.BXBX",
"BXBXwX] ] 4.K.7 J.J a Y.$ u.L 3 w e p #X8X8X7X5X2X,X>X:X;X)._.~.(.Q.E.R.Y.Y.Y.L.K.B.M.M.i.e.+ $ 3 6 - - - = 0 ~ ~ o . . # |.BXBX",
"BXBX=X] ] 4.N.7 n.J a L.$ r.L = w r e #X7X7X5X2X2X:X;X_._.(._.J.:.K.R.Y.Y.Y.L.C.B.M.f.f.i.w.# $ 3 6 M G L W Q '.'.; . X # |.BXBX",
"BXBX*X] ] 4.M.w n.H p L.% r.L = e e p W.5X-X>X2X:X;X`._._.!.!.S X W Y.L.Z.Z.C.M.M.f.i.r.i...$ : 3 6 z z b F W  X X;   . O |.BXBX",
"BXBX=X] ] +.d.w n.H i B.$ e.S - 6 w p W.I.q Y ;X;X_._._.!.!.Q.s.x d.L.L.Z.C.M.M.M.i.0 + L ..+ $ % 6 9 4 9 0 0 T I # . . + |.BXBX",
"BXBX=X/ ' 1.n.w s.H a B.$ e.S % w e e I.D.< q _.`._.~.!.!.Q.W.R.Q.Z.L.C.B.N.M.f.i.i.2   K L + : 6 7 } ..e.y.a.jXhX< . . + |.BXBX",
"BXBX=X` ] 4.y.w a.A y M.% e.S = w e p =.-XJ.W.;X_._.!.!.E.R.R.Y.Z.Z.C.C.N.M.M.i.i.i.w.L w.k ; 3 8 6 3 & $ & 1 P P . . . + |.BXBX",
"BXBX*X] | O.} w a.b y M.% e.S = w w p p J W W W W W W W L L L S L S S S S b b V k x x k j O 1 5 3 - X.t.u.m.D.jXhX< . O O |.BXBX",
"BXBX*X&.| ] A w y.V p i.$ X.A % e w u a i 3 + & + . O + ; . # : X + # # + # # # X O X # X & 4 3 % 6 = * $ < 1 ! ! ; . O + |.BXBX",
"BXBX=X@.] ;.j.p p.V t i.% -.b = 7 w p u s u 1 : : $ : $ > : 3 5 > $ $ $ : : : ; $ : : : 3 5 3 % = 6 - $ # # & < < X . . ; |.BXBX",
"BXBX=X] ( ] W 7 t.z t u.% ..b = w e p p p p u 4 3 > 3 > , 5 5 3 3 > 3 , 3 > , , 3 > > , 5 6 > 3 6 6 X.t.t.c.S.0XXX< . . + |.BXBX",
"BXBX*X` ' 3.k.4 :.z w V = z 0 - 5 r t p s i s 8 5 , 6 > 5 r 6 = 3 = 6 % 3 6 6 , 3 3 3 3 3 3 3 3 6 6 - * * * 2 ! ~ #   . O |.BXBX",
"BXBX=X` ] | } - ..l 6 7 7 u 8 6 7 e u p u p u u 8 6 6 r d 6 6 6 6 6 > 6 6 6 6 , 6 6 , 6 6 6 6 6 6 7 M D L %.Q [.'.<   . O |.BXBX",
"BXBX*X` ` o.} 4  .k 6 5 u r 7 6 e e r u p u u u r r 8 r e 5 w t e e H 7 6 e 6 6 6 6 5 6 7 6 7 6 6 6 z x b A W  X Xo     O |.BXBX",
"BXBX*X` ` o.X.- X.a e u s v H 7 h E w E E u @.B s @.f 7 6 8 t X.l l.b.3 6 6 6 8 p G ) J J J @.J G 7 0 0 0 q c I I .   O O |.BXBX",
"BXBX=X/ ` | +.7 S N r p e 6.;X6 D.W.w /.U.u -Xp.V ,XE 6 e e 8 B V.m.% $ $ 5 8 8 B ..-.-.:.:.:.-.W 7 L -.e.p.h.hXXX; O   O [.BXBX",
"BXBX*X/ ` ` v.X.u } J w 6 4.(.6 b.U.w T.S.4 (.-.f _.J = 5 e r a.N.T.c @ $ 3 s 5 7 4 = 3 3 1 3 3 - = = * 4 1 o P P . O O O |.BXBX",
"BXBX=X` / / / m.,.t K m e ' t.- %.;.- 2.%.7 p.S u x.l > , e @.p.% c H.3 1 5 > 5 A y.l.v.m.m.m.v.t.- X.t.x.m.J.lXkXo . . . |.BXBX",
"BXBX=X` ` ` ` / m.X.p D m e 6 = 6 3 - = = 6 = = = % % 3 > 6 5 > $ $ 1 : 5 : : > 6 $ $ # $ % : & # = * * $ * 1 T T X . . . |.BXBX",
"BXBX*X` ` / ` / ] m. .y N n e = d G 4 V F r C c 3 F i 7 F r 6 5 $ $ > 5 : : $ : y M m M N D N N x = S K } -.;. X Xo . .   |.BXBX",
"BXBX*X` ` ` ` &.] / m.} t N a e :.`.9 W.W.3 (.D.t 1X6.v 1XF 3 3 > > > : @ @ : @ $ 4 4 3 4 4 7 4 4 & i j c C Y  X[.o . .   |.BXBX",
"BXBX*X/ ] ] 1.6.6.@.` z.^ t M t 3.E.i U.J.4 W.d.9 (.:.i ).V : 3 5 > : : : : : @ : @ : $ $ $ $ $ $ $ $ 3 8 h R q ; . . . O }.BXBX",
"BXBX=X] ] ,.A.zXzXU.Z Z l.J t y H e.u %.W 1 %.D 3 :.A 9 e.8 : > > > , : : : : : $ : : $ $ : : : % $ : 5 p [.cXeXE . . . : }.BXBX",
"BXBX=X] ' ] <XMXrX(.b B n t.G w w r 3 p.p.* S.=.4 D.E i H.s : > > 5 > : : : : : : $ > : > 8 , > > > > 5 s jXbX2XS.X + : ; |.BXBX",
"BXBX=X` / / H.7XR.e.* 8 h m +.m w 7 6 K.J.6 W.d.9 ).=.k -Xh : : : , , , , : , d V C V C C B 3 , , > 6 6 8 {.,XB.L . ; ; O |.BXBX"
};
