/* XPM */
static char *_2[] = {
/* columns rows colors chars-per-pixel */
"64 64 240 2 ",
"   c #1E0D2C",
".  c #220E2F",
"X  c #250F31",
"o  c #290F34",
"O  c #310F35",
"+  c #2C1036",
"@  c #34123B",
"#  c #39123C",
"$  c #390F47",
"%  c #3B1545",
"&  c #3B124C",
"*  c #3C1354",
"=  c #3C1358",
"-  c #3C0166",
";  c #3F0068",
":  c #45184A",
">  c #441453",
",  c #4B1857",
"<  c #44155C",
"1  c #531B5D",
"2  c #4F2754",
"3  c #552659",
"4  c #612A5C",
"5  c #43026C",
"6  c #4B026D",
"7  c #44086C",
"8  c #53056D",
"9  c #461661",
"0  c #4A1762",
"q  c #4B1865",
"w  c #4D1769",
"e  c #4E1869",
"r  c #531A6D",
"t  c #581869",
"y  c #460471",
"u  c #4C0474",
"i  c #4C0A75",
"p  c #4B0379",
"a  c #4D0E78",
"s  c #520574",
"d  c #590777",
"f  c #520C75",
"g  c #5B0C7C",
"h  c #4F1079",
"j  c #541375",
"k  c #591577",
"l  c #571B71",
"z  c #5D1A72",
"x  c #54147A",
"c  c #5B137C",
"v  c #5C1B7D",
"b  c #620C7A",
"n  c #631779",
"m  c #631D7A",
"M  c #6C1E7D",
"N  c #5D2A68",
"B  c #662469",
"V  c #653768",
"C  c #6B227A",
"Z  c #722879",
"A  c #743872",
"S  c #714572",
"D  c #784779",
"F  c #82497B",
"G  c #5F1883",
"H  c #641384",
"J  c #6A1484",
"K  c #641B83",
"L  c #691986",
"P  c #6C158C",
"I  c #6E1B8D",
"U  c #741B87",
"Y  c #721B8E",
"T  c #6F1790",
"R  c #741B92",
"E  c #781B95",
"W  c #7B1D94",
"Q  c #6D2284",
"!  c #682685",
"~  c #74228C",
"^  c #782588",
"/  c #732C8C",
"(  c #6E3189",
")  c #79348D",
"_  c #7B2294",
"`  c #7E2595",
"'  c #7B3792",
"]  c #7D4194",
"[  c #821D94",
"{  c #AD0E9C",
"}  c #B20F9E",
"|  c #B3109F",
" . c #86338F",
".. c #822594",
"X. c #832C93",
"o. c #83249B",
"O. c #88289A",
"+. c #8A2B9D",
"@. c #853393",
"#. c #873999",
"$. c #93399A",
"%. c #9A1EAA",
"&. c #B610A0",
"*. c #BC10A3",
"=. c #A81DB5",
"-. c #8927A1",
";. c #8928A3",
":. c #8D2AA3",
">. c #9824A6",
",. c #922CA5",
"<. c #942BAB",
"1. c #9A2CAD",
"2. c #9637A4",
"3. c #9933AD",
"4. c #9D35AD",
"5. c #9D3BAB",
"6. c #9B2EB1",
"7. c #A22AAC",
"8. c #A536AC",
"9. c #A42FB4",
"0. c #A233B2",
"q. c #A936B3",
"w. c #C211A6",
"e. c #C713AA",
"r. c #CE15B0",
"t. c #D819B9",
"y. c #E11CBF",
"u. c #874E8D",
"i. c #885889",
"p. c #85439B",
"a. c #8C449B",
"s. c #88489B",
"d. c #92479A",
"f. c #985898",
"g. c #92618E",
"h. c #9A6899",
"j. c #A26A9E",
"k. c #8D48A2",
"l. c #9849A6",
"z. c #9C44AB",
"x. c #9253A6",
"c. c #9856A7",
"v. c #A349AC",
"b. c #A557AC",
"n. c #A749B2",
"m. c #B14CB5",
"M. c #AA58B4",
"N. c #B559BA",
"B. c #A564AA",
"V. c #A976A7",
"C. c #B17CAD",
"Z. c #AC64B3",
"A. c #A869B6",
"S. c #B468BA",
"D. c #AE71B9",
"F. c #B474BC",
"G. c #B877BB",
"H. c #C06FBF",
"J. c #BC1DC1",
"K. c #E41EC2",
"L. c #CD28CB",
"P. c #D72BD2",
"I. c #DE34D6",
"U. c #E925C9",
"Y. c #EE2AD1",
"T. c #F22CD3",
"R. c #E13BDA",
"E. c #F435DA",
"W. c #F83EE1",
"Q. c #BA69C2",
"!. c #BC74C3",
"~. c #B779C3",
"^. c #BB7DC3",
"/. c #E746DE",
"(. c #C36AC6",
"). c #C378C9",
"_. c #C47BCA",
"`. c #CE7DD1",
"'. c #E76CDF",
"]. c #EC4AE1",
"[. c #F843E3",
"{. c #FA4CE6",
"}. c #EE51E2",
"|. c #F758E7",
" X c #F865EA",
".X c #F87AEC",
"XX c #F969F1",
"oX c #FB7AF0",
"OX c #B280AE",
"+X c #B986B6",
"@X c #C28CBE",
"#X c #BD82C7",
"$X c #C384CA",
"%X c #CA83CD",
"&X c #C58ACD",
"*X c #C888CA",
"=X c #D18ACF",
"-X c #CB98C9",
";X c #D19CCE",
":X c #CB86D2",
">X c #CB8CD2",
",X c #D28DD5",
"<X c #D788D9",
"1X c #CD91D4",
"2X c #CE92D8",
"3X c #D293D4",
"4X c #D69BD4",
"5X c #D494D9",
"6X c #DA95DC",
"7X c #D69ADB",
"8X c #DB9CDD",
"9X c #D4A3CD",
"0X c #D8A4D5",
"qX c #DCA2DD",
"wX c #E2A8DD",
"eX c #DC9EE1",
"rX c #FA85EE",
"tX c #E19FE2",
"yX c #F996EE",
"uX c #FC87F1",
"iX c #FC98F2",
"pX c #DDA1E1",
"aX c #E2A4E4",
"sX c #E5AAE5",
"dX c #E7A8E8",
"fX c #EBADEC",
"gX c #F9A1EC",
"hX c #EBB6E7",
"jX c #ECB3EB",
"kX c #F2BCEE",
"lX c #FCA4F4",
"zX c #FCACF4",
"xX c #FAB6F5",
"cX c #FDBBF7",
"vX c #F4C6EE",
"bX c #FAC4F5",
"nX c #FDCCF5",
"mX c #FDCDF9",
"MX c #FDD5F6",
"NX c #FED4F9",
/* pixels */
"&.e.T.XXbXmX.XL.1.7XA.c p d c.5X/ y 5 6 ' qXx.i 6 s d / 3X_.` Y Y E [ ,.).dXM.0.6.6.6.3.1.5.%XaXv.X.Z n z t t 1 t B @X+X4 # O O ",
"} e.T. XbXnX.XP.1.6XA.J d H c.7X) u 6 8 ' 8Xf.d 8 s b ) 3X_.X.E E [ O.,.).gXN.9.9.9.6.6.1.4.%XaXv.[ U M B t t 1 1 Z @X@X4 # O O ",
"| e.T. XcXMX.XP.7.6XS.J d b c.eX@.s 8 d  .8Xf.g 8 g b X.3X`.+.W [ o.>.,.(.fXN.q.J.q.9.9.8.8.=XdXm. .X.Z Z m B B B A =X@X4 4 : : ",
"| e.T. XvXMXrXI.q.6XG.^ J J b.aXd.b n n p.8XB.^ M L ~ $.3X=Xl.,.,.$.2.m.%XzX(.N.N.N.N.N.N.N.6XhXH.b.b.b.b.l.f.f.f.B.wX9Xj.g.g.g.",
"| e.Y.|.bXMXgX'.(.wX;Xb.l.b.$XhXG.B.M.Z.^.hX;XG.G.!.).*XhXhX3X,X,X<X6X6XjXbXfXaXgXdXdXfXdXdXvXnXgXwXwXwXsXsXwXwXgXwXvXkXgX9X9X9X",
"| e.Y. XbXMXnXxXgXvXkXdXaXaXfXvXsXqX8X8XwXkXsX4X5X6X6XeXkXkXtX6X6X6X6X6XfXbXaX6X6X<X`.`.`.:XaXkX=XH.H.Z.B.B.b.f.g.g.9X9Xg.F F A ",
"&.e.Y. XcXMXzX'.(.aX4Xb.d.l.G.fXZ.#. .@.f.tXG.p.)  . .d.3X6Xv.$.2.2.8.v.`.fX(.m.m.q.q.n.q.m.`.fXZ.$. .X.Z M B B B A @X=XA : : # ",
"| e.U.|.cXMXyXI.8.,X$X[ b b f.tXd.n d b ^ 6XA.n 8 b n ^ &X,X$.W [ O.O.>.(.zXN.q.q.q.q.7.8.8.).fXm. .M M M B t t 4 B @X=X4 # # O ",
"} w.Y.|.xXNXyXI.7.=X$XU d b d.tXk.s 8 s Q ,XB.n s d H ~ _.2X:.E U [ [ ,.Q.dXN.9.9.9.6.6.1.4.(.fXb.X.^ M m r t 0 1 B +X=X4 : O O ",
"} w.Y.|.xXmXyXI.7.`.*XL s d a.eXk.i 6 u ! 3XA.k 6 u s L ^.5X#.E E W [ ,.Q.fXQ.9.6.9.6.6.,.4.!.hXv...U m z r q 1 , B C.;X4 # O   ",
"} w.U.|.xXNXyXI.=.%X*XK p s #.qX] p ; i m 1XA.j 5 y a I ^.eX<.T T E W :.Q.fXQ.0.6.6.6.6.,.4.G.fXb.X.Q m r r 0 < , 1 C.;X4 O .   ",
"} w.U.|.zXNXiXI.%.`.&XK p i #.8Xk.a ; 7 v >XD.j 5 y p P ~.eX' T R E W :.N.fXQ.0.6.6.<.6.,.4.Q.fXb.` Q m l q q < , B V.=XV O .   ",
"} w.U.|.xXNXiXI.6._.&XK p p #.pXk.; ; ; G &XF.j 5 y s K ~.eX` T T E E <.M.fXQ.9.6.6.6.<.:.3.Q.fXb.X.Q m l w 0 < , 3 V.9XV O .   ",
"&.*.U.{.zXNXiXI.%._.>XK s p ' pXk.i ; i v &XG.j 6 6 s K ~.eX' E T T W ;.N.fXQ.0.6.6.6.6.,.<.Q.dXb.X.Q m l w 0 , , 1 V.-XV O .   ",
"} w.K.|.zXNXiXR.%._.>X! p p ' qXs.a 5 7 v &X~.j 5 y p K ~.eX#.T T E E ;.M.fXQ.9.6.6.<.<.<.3.S.fXb.X.U m l w 9 , , 1 V.9XS @ X   ",
"} w.K.{.zXNXlXR.=.).>X! u p ) 7Xx.a ; 7 v $X^.k 5 y s K ~.aX#.T T E W ;.M.fXQ.9.6.6.<.<.:.2.S.fXM.X.C m l e 0 , , t j.9XV @ X   ",
"} *.K.{.zXNXlXR.%.!.2XI p p ) 7Xx.a ; 7 v #X^.x 5 y s K D.eX#.R T E E ;.M.xX!.0.6.<.<.<.,.,.S.fXZ.X.U m l e 0 < , e B.9XV @ .   ",
"} *.K.{.lXNXlX].=.!.2X! p p ( 5Xx.a 5 y v #X#Xk 5 y s H S.pX#.T T E E ;.n.fX(.0.6.3.<.,.:.3.N.fXZ.X.Q m l e 0 , < 3 h.0XS @ X   ",
"} *.K.{.lXNXlXR.=.!.2X! p p / 4Xc.a ; y x #X#Xk 5 y p H A.pX#.T T E E <.n.fX!.6.6.<.<.,.,.,.Z.fXN.X.Q m l e 9 < , 1 h.0XS % X   ",
"} *.K.{.lXNXlX].=.!.5X/ p p / 3Xc.h ; 7 x #X#Xv 5 7 s n Q.eXk.T T T E ` M.fX_.0.6.<.<.<.,.,.M.fXZ.X.C m l e 0 , , 1 h.4XS @ X   ",
"{ *.K.{.iXNXzX].=.Q.2X! p p ! 2XB.a 5 7 k ^.$Xv ; y p G M.aXk.T T T E ` n.fX!.6.<.<.<.:.:.,.M.fXS.X.Q m l e 0 < < 1 h.0XS @ X   ",
"{ *.y.{.iXNXzX].=.Q.2X/ i p ! 1XB.h 5 5 x ~.$Xv y y p H A.eXk.T T T E ;.n.dX`.6.<.<.<.<.,.,.M.fXS.X.C m l e 0 < < 1 f.0XS + X   ",
"} *.K.[.yXNXzX/.=.Q.7X/ s p ! >XA.a ; 5 x ~.$Xv ; y y G M.pXk.E T T E ` n.dX`.6.<.<.<.;.:.,.M.fXS.X.U m l e 9 < < 3 g.0XS % X   ",
"} *.t.[.iXNXzX].=.S.7X/ p p ! 1XA.a ; 7 x F.&Xv ; y y G M.pXk.R T T E ;.z.dX_.6.<.<.<.:.:.:.b.fXG.X.Q m l t 9 , > 1 i.0XD % X . ",
"{ *.y.[.iXNXzX/.=.Z.8X/ p p K >XA.h ; 7 h D.#XG - y a G b.aXx.T T T E ;.z.aX`.6.<.<.:.:.<.,.b.fXG.X.Q m l e 0 < < 1 i.0XD % o   ",
"} *.t.[.iXNXxX}.=.N.eX) p p K &XD.h y ; h D.-X! - 7 u x v.aXk.T T T E E z.aX:X0.<.<.:.:.:.:.v.jX!.X.Q m l e < < > 1 i.0XD % X . ",
"} *.t.[.uXMXzX}.=.M.eX) p p G :XD.h ; 7 h D.-Xv 7 5 u c x.aXl.I P T T ;.5.aX`.3.,.:.:.:.+.,.b.fXG.X.Q m l e 9 < < 1 u.0XD % o . ",
"} *.t.W.yXMXxX}.J.M.eX' y G G 2X~.G ; y h A.1XG 5 5 y c x.aXl.R P T E E z.pX:X3.<.:.:.-.+.+.v.fX).X.! m l e 0 < > 1 u.9Xi.% o   ",
"} &.t.W.uXNXxX}.J.z.pX' G p G #X#Xh ; y h A.1X! 5 y y c l.dXl.Y P T E o.5.eX:X3.<.;.;.-.+.+.v.sX). .Q m l q 0 < , 2 ] 0Xi.% X   ",
"} &.t.W.uXNXcX}.=.v.dX] G p G #X#Xx y ; a B.;X! 5 5 y j k.aXc.Y P T E _ 5.eX>X3.,.:.;.-.+.+.v.sX!.X.C m l q < < > 2 D wXi.@ X . ",
"} &.t.W.uXNXcX}.J.M.pX] ; p G #X#Xx ; y a B.2X! 5 5 y c k.aXc.Y P P R _ 2.eX,X5.:.;.;.-.+.+.v.aX_.X.U m r e < < > 2 D wXg.% X X ",
"{ &.t.W.uXNXcX}.J.v.pX] G ; G ~.#Xh ; 7 i c.4X! 5 5 y c k.aXc.R P P R E 2.6X,X5.:.;.-.+.+.+.z.wX$XX.! C r q 9 < < , D 9Xg.: X . ",
"{ &.t.E.rXNXbX}.J.v.pXk.p p G ^.#Xx 7 5 h x.7X( 5 5 y d p.sXc.Y P P E _ 2.eX,X3.:.;.-.;.O.+.z.qX$X .U m r q < < > , D wXi.% +   ",
"{ &.t.E.rXNXbX}.J.n.pXk.s p G ^.$Xx 5 5 i x.7X( 5 5 y x p.sXM.I P P T W 2.2X5X5.-.-.-.o.o.+.z.pX%X .Q z l e 0 < > , D wXg.: + . ",
"{ &.t.E.oXNXcX|.J.z.dXk.s p c ~.#XG 7 ; i x.7X( 5 5 y x #.sXM.I P P T W ,.,X5X5.-.-.-.o.o.+.z.qX*X@.U z r e < < > < S 0Xg.: X . ",
"{ &.t.E.oXmXbX|.J.z.pXk.s p h ~.#Xv 7 7 7 x.0X] 5 5 y x ' sXB.I H P T E +.:XeXz.;.-.-.-...+.2.7X&X@.M C r q 9 = > , S 0Xh.% +   ",
"{ } r.E.oXmXcX|.J.z.pXx.s p G ~.&Xv ; 7 i k.qX( 5 ; 7 h ' fXA.I K P P _ #.,XeX5.-.o.-.o.o.O.l.6X*X@.U m r 0 9 = * > A 9Xh.2 .   ",
"| &.r.E.oXmXbX XJ.z.dXx.a p g ~.&X! y 5 i s.pX' 5 ; y f ' sXA.P H P P E :.>XeXz.;.o.o._ ....2.4X>X#.Z z r q < > > < A 9Xh.% X . ",
"} | r.E.oXbXbX|.J.z.pXx.d p x Q.&X! y ; 7 k.qX' 5 - 5 f ' aXA.I J P P E +.:XeXz.;.o._ -.` ..2.3X1X .C m r q < = * , V 9Xh.% + . ",
"{ } r.E.oXmXbXXXL.0.pXx.s p x D.&XG 5 7 i s.qX] 5 5 7 f ' aXA.I H P P R +.:XeXz.;._ -.` ` O.2.,X3X#.Q m r q 9 = > : S -XOX2 + . ",
"{ } r.E.XXbXnX XJ.2.tXc.g u x D.1X! y 5 i p.pX] 7 ; y i ) pXD.I H H T R +.:XpXz.;.-._ _ [ o.$.,X3X#.Q C r q < > * : V ;XV.: o . ",
"} | r.T.oXbXbXXXL.8.aXc.g p g A.1XG 7 7 y ] pX] 7 - y i ) 8XD.I H P T R ;._.dXz.o.` -._ _ ..#.>X3X#.C z r q < = & < V -XV.: + . ",
"{ &.r.T..XbXnX XL.8.wXb.c u g A.1X! ; ; y ] pXs.- - 7 f / 7XF.~ H H P T ` $XpXz.;.o._ _ ..o.#.%X7X#.C z r 9 < = > > V -XV.2 + . ",
"{ | r.T.XXbXnXrXI.v.tXM.J s c b.2X! ; 7 7 ] 0Xs.7 - ; s / eXF.I H L P T ;.^.fXz.-.` ` _ W ..#.%X4Xp.C v r 9 < = * : V -XV.2 + . ",
"{ &.e.T.XXbXMXcX<XH.wXZ.U d n B.3X/ 6 5 y ] pXs.7 - 7 i / 5X~.~ H P P I ` ^.dXz.-.E _ _ _ _ +.&X8Xa.C z r 9 = = * : V #XC.2 X   ",
"{ | e.Y.XXcXMXjXzXhXkX@XX.b J b.5X/ 6 5 p ' qXs.7 - 5 6 ! 2X~.~ H H T T ` !.dXz.+._ _ E _ _ @.%X8X#.C n r 9 = = * * 4 -XOX2 + . ",
"{ | e.T.XXcXmXrX}.`.kXjX%Xl. .Z.8X' 8 8 s ' pXs.7 - 7 s ! 5X^.~ H H P T ` !.dXz.o._ _ _ _ _ X._.8Xa.M z r 9 > * * : N +X+X2 + X ",
"| | e.Y.XXkXnX.XI.q.aXwX8XdX6X3XaX#.b 8 d ' qXx.i - 5 i Q >X^.~ H H H T ` !.dXz.o._ _ _ _ _ @.^.wXa.M z r 9 = * * * N +X+X2 + X ",
"{ | e.Y.XXcXmX.XP.7.6X).d.v.=XjXkXG.@.M b  .8Xf.f 5 5 6 Q >X#XQ H G K P ` F.dXl.` _ R _ _ ~ @.!.aXa.M z w 9 = = * * 3 +X+X2 @ X ",
"{ | e.U.|.cXmX.XP.>.6XF.U n ) G.kXfXtXG.a.f.tXc.k 6 6 s Q >X$X^ H G H P ` S.dXv.o._ _ _ ~ _ X.!.sXa.M z h 9 = = * & 3 +X+X3 @ X ",
"{ | e.U. XcXmXoXP.>.,X!.J b b b.aXG.G.7XtX3XhXA.m 8 8 d Q *X*X/ H H P P ` S.sXb.o._ _ Y _ ~ X.G.sXa.M z w 9 = * & : 3 +X-X3 + X ",
"{ | e.U.|.xXmXoXP.>.,X~.M d b d.aXd.C  .Z.8XvX4Xc.^ B b Q $X%X` P H H P _ Z.sXv...R R R ^ W X.G.sXd.M z w = = * & & 3 OX@X3 + X ",
"{ | e.U.|.cXmXoXL.>.>X#Xb d d k.pX#.g d M d.wXjXdX=XB. . .*X%XX.P H P T _ Z.aXv...E _ R ^ W X.F.sXd.M z e 9 = * & & : OX-X2 @ . ",
"{ | w.U.|.xXmXrXP.>.>X#XK s d k.pX#.s s d ) 6X+XB.$XtX8X$X0X;X@.P P P T ` Z.sXb.o.~ R ~ Y W ` S.sXd.M z w < * * & % 2 OX-X2 @ . ",
"{ | w.U.|.zXNXoXP.%.:X#XH p p k.qXp.u u 8 Q 3XD.C Z a.).wXvXsXM. .[ T T [ N.dXb...~ ~ ~ U ^  .S.fXd.C l w < = * & % 2 OX9X2 @ . ",
"{ | w.U.|.zXmXoXP.-.:X$XK p p p.qXp.p 5 6 C 1XA.n 8 k C d.4XbXjX=Xb.$.[ :.N.dXb..._ Y I U M ..Z.sXs.C l w 9 = * & & 2 OX9XV @ . ",
"{ } *.U.|.zXmXoXP.%.&X$XK p p p.pX] h y 5 ! >XD.k 6 8 f Z $XwX_.6XfX3XS.v.S.fXM.O.[ [ U U U ..Z.dXd.C l 9 = = * & % 2 V.-XV +   ",
"{ } *.U.{.zXnXuXP.%.$X&XK p p #.pXs.a - 5 v -XD.j 5 5 6 n G.8Xd.$.Z.,XfXwX4XkXN.$...[ E W W X.Z.dXx.C t 9 - = * $ $ : V.-XV @ . ",
"{ } w.K.{.zXmXoXI.%._.>X! p p #.pXs.p ; 5 v &XD.j 5 5 6 n F.8X@.U [  .b.=XjXnX6XN.$. .[ _ [ X.Z.dXc.C z w = = $ & $ > V.9XV @ . ",
"{ } e.K.{.zXmXuXI.%._.&XL p p ' pXs.p 5 7 v *XG.w - - 5 k S.eXX.J M U [ $.H.kXkXfX<XM.d. .[ ..b.dXc.Q z j = * * $ $ , j.-XV @ . ",
"{ } *.K.{.lXmXuXI.%.^.>X! p p ' eXs.a 5 7 v &X~.j - - - j A.8X' H H J P ..b.fX=X_.wXfX=XS.$.$.Z.dXb.Z z 8 , * & & % : j.-XV +   ",
"{ } *.K.{.lXmXuXI.%._.2XI p p ) 0Xx.a ; 5 v #X+Xx - - - r A.qX) g H b K W l.fXS.$.l.H.6XzX8XH.@XdXb.^ n t 0 < & & % : j.9XS % X ",
"{ } w.K.{.lXmXuXI.%.!.2XI p p / 7Xx.a 7 y c #X#Xx - - - j A.eX) b g g H U l.dXS.O... .d.Z.;XgXhXkXG. .Z B t < > & $ : j.9XS @ . ",
"{ } *.K.[.iXmXuXI.=.!.2X! y G / 4Xx.a 5 5 c #X#Xx - - - i B.eX) H d g H U l.fXZ...[ U U  .$.b.6XvXhX%Xf.Z t t > > : : h.4XV % X "
};
