/* XPM */
static char *_8[] = {
/* columns rows colors chars-per-pixel */
"64 64 55 1 ",
"  c #250725",
". c #260825",
"X c #280926",
"o c #280728",
"O c #270A28",
"+ c #2C0A2B",
"@ c #310B2F",
"# c #350C33",
"$ c #390C36",
"% c #3C0D3B",
"& c #3E103D",
"* c #410E3E",
"= c #41103F",
"- c #440E42",
"; c #480E46",
": c #4B0F4A",
"> c #530F4F",
", c #451044",
"< c #491146",
"1 c #47144A",
"2 c #4C124B",
"3 c #50134E",
"4 c #4F1250",
"5 c #541453",
"6 c #581556",
"7 c #571558",
"8 c #5C165A",
"9 c #5E185C",
"0 c #60175E",
"q c #61185E",
"w c #5F1460",
"e c #5F1860",
"r c #631662",
"t c #681666",
"y c #651963",
"u c #681A66",
"i c #6C166A",
"p c #671A69",
"a c #6C1B6B",
"s c #711D6F",
"d c #741E73",
"f c #791F76",
"g c #7B1F79",
"h c #792077",
"j c #7D217B",
"k c #801F7C",
"l c #81227E",
"z c #852382",
"x c #892486",
"c c #8D258A",
"v c #90268E",
"b c #932791",
"n c #952992",
"m c #9A2A96",
"M c #A22D9F",
/* pixels */
"  XX@+o+$$@+o+@$%-@#%#@#*-*#$#%##$$%$%%;####+@@-$++@oo@oo++oo   ",
"X X+ooX+++@+@@#;*#-#-##-%#%;#$-###%*%$$$#@@@#-#@#@#@++++@o@o  + ",
"X.XXoo+++#@#%@-%$$#$-*#%$$%%$-$$$#%-;*$$%$%%$#$%$$%#+@#$$+@o .  ",
"+@+++++$%$*#@$%$##$$$$$;:;$**;**&&--*:$-$%%$#%#@@###@@@oo%@o+X @",
"XX+++++##@@#$$$$%25$%-%-;;%;%:2--,;%%%;-%%$$%-###$##$@@#++X .o.O",
"+X++++#+@##$#;;%$-;%$$;*;>4-%5-<;--%%:;%:-&-4%$%%##$###%+@#+++..",
"++%+$@+#$##;$%$%%*-%&,;2::--*4*,,4:;--*:-%;:;$$&%##$%$@##@++X.O+",
"#@$+###$#$$>%%%%*%,,-,2<-;::,<<,,2542<%2---;-%$&-%#$%##@$++++++o",
"$+#+$#$$$%$:*-%-%&,:2,2-,<25<22<,,25>2,-,,-&,&%*:&$$%#$#@+++++@#",
"@+$@*%%*%-$%%:;-,,,23,:;,<<,25312<,22:<,,;,,,%%,-%$$$%%%$@@@#++$",
"@$@$*#*;%$-%&-*=,-256;65223122q222,2280:2-,,,-*:--*$%<#$-##@#@++",
"$@@#$$%%$%---&,,;5r,-5<865<3<363642555:22522<<,671,-%%%$*$%#++++",
"++@**,$%-<&<<<22223621636086153252226286w622,,--:-*-;%-%#>-%%$@+",
"#%*$$#%&%<*,5;,;1,125t6325653556657y79y152<<<2,;;;,--%%$#;#$%$++",
"$$**#$%%=2,25,,233322686555583566665y6556566652r22<--%**%%*%$+#@",
"$$--,%$-2-*2,62<332335686698686666766655545232284:1<;>:%*%$$$$#$",
"%$*-*%*;2-=326>555255698769qy98869qq5995555525124222,2:-%%;*$##%",
"%%%*$;--,,,65358666678987999y9y999rq69q66666582222:2,,,,%%:-$$#$",
"%;***7:-,22r5:3886e9q9yqyy9e9q9yqqq9qy9986666a5545222<<=%*%%$#$#",
"$-->::;;2<35856rr6666ut9uaey9yyyyty9ya9a9666856w52222,=,&,,%$$#$",
"%%*%:;,,<2629368666889qyyuyytyuappyyy9y99897665a5255<,,,-&$&--*$",
"-%%%,rr5,166258669qyu99yyuasyysuaauytpuy99996y8825313<,2--&**$@#",
"-4<*,;-:726955yp98u89yytuaayuasuyahdsyayeyyy866p6523328q1:-&%$$5",
";::,-5>6529588t99tq9uyyyyuusauudsapufufuyyyytd96356522<2--&--*-*",
"%-;,,<2552p6559yy99yptyaapdsaasfhuahaadtuyyyyy96y9532263<7,-;:;$",
"%2*,,;225568ty9tpyqtauhhfsdhsafdahdhpsauaauuy998y8535282<4<;;;-$",
"*5&,2;26566pdtquauypdpdffdsfdhjfshfasaasupupyy996655555<4:;-;:1%",
"%2,56566368pyytyyyuafssddfdffxjjhhhdhashsuupyuqqq666552187:<;4:*",
"-245:62336e66yyyuuuhzhsadhhfhdffhjhhzshasapyyy9qy66895552<74*,*%",
";r%58556688y699yyyphhhhsjjfjjfzjjjjhhhsauhdpf0yahy553223:4;-,---",
";t<8:4216r6s99yysuujphhhjjjjzzzxxllzhhjhzjhsyusfuuy886446272=%-%",
"*:,;<26tt65799ytyahjjdhdhjjzzMzxxxljzjzhsjhuutypy9666462454,,,,*",
"-3,1<225668q99yytafssffzlgjjxvzxzzllcjjxhdsauauy9996553291<,,2=-",
"=<,2226665099ayaaadsfzjjlzxzcxxxxccxlzjjhssdsaquqq898555332,26%;",
"<,,12355589q9ayaapsddjjjjzxxcxcxcccxlljlgdsssuyyqyq09563232<22%*",
"<-,15225569yqqypaspddfjzzxxcccvvccxxllljhgdsauuq9q086562222<2:=%",
"<,2265235689y9ysddahdfllzxcbcbbbcvczlxlfhhdasappq866665322:588-$",
"-,<82256669899ysdphadfljzcnvxnnnxcvxlxgfhssshfaau0867y5524:5>;%%",
"6<,36855669a99ypuhpzfjxlzxxcnccccxvmczlfhssuuu9daq9yue61w25<<2;-",
":2i-0y88y98yyyyypaajdflgjlzxmxcmcxxlzzghhhsaaahaq88655595,242**%",
";,26256658yptyyyusassjjjlcmxzxzcxvvzxlfgsdssypap9y80y66621:256-:",
"=,2;35566768yyuuspuhhhhjjlzllzzzzzlklhlfdfdshyjy9966658522:5>--*",
",,,<2255569y9yyyyuaaahdhhgjjzzxxvxkgghhssssastuy8878r66662254=%%",
",-=5;22356yy9yyyyuasadhsdhjfzjlzxzlffhssssasdduy998686535<22<,$$",
"-,,5222257ye69yyuaysaahhdhffjjjjgllhshsssahdpsayyy8666214<,-,,%%",
";-22,22666y9699qyuuudadsdfdhhhlhfdshdhsssaadyty99986665,5,,-%--%",
"-%&,32236936uyyyuahypshasdsdhjhhfhfdldsahsyutuaq98556q42<,2-*-2-",
"-=,5622692336589yytydpsasfgxjjshsssfslgsuuayqqu98886321264<<,**$",
"4--24578866566q90yustapsjjshshhsddshajshhsyuj88856q96755,52-:5$:",
"%<:<4<<28t265eryyyqy9yasuasphuusupspjhyapyy9869968652555;5:2;*;$",
"%<-,=<22:3283569y99qyhyyshususuajdsuayyypyqy66865652522:;4;,;;%$",
"2-%-*2445762q566999q9yaypupasuauaauypyyqtyyy985556322422:,%*&*%$",
"*%&&-11456528555898eyyauyyytuyayuppyuqtq9yyyt68525333<22:--%%$%%",
"$%$*,:,<2<<553558969y9uyy9yquuayputqpeyq8998y69551353,2;:--%%%%%",
"$#$*-;,,,,<363665566u9pq8999uudtuuy9yy6y956653666323225,-*%%$$$#",
"*#-&$---,2,<<5535259e66e9999yay9998999679667933612335:-%7:%$%##%",
"%*#$&;462,<<4222664566e759qqut999999956y85442593r2;1;-%%4;%$###@",
";>$-%%-;-<<24<155253969966966q6uq88866fy8689r92,4<<--*-%%%*$#@$:",
"$%$$%%%%;6*,,56522:4356566576a86668966666458221,<2--:7;*%#%%%&#@",
"$$%%#%$%<42;22,22<2523333556559536866wt64246<<,,,<:-*:%:%#$%%@@+",
"$###%%%---;,,,,3755:2<8639933586568546655222<--42---;*--$#*%@@@+",
"#@#*$-*-:2*,-,,2587;,;5557513565246213522:2:2<,<<;-****%$#$#@@%+",
"@@@-$%%%;:%*--,<265<2,255521335121214522211,4<,-=-&$%*%$####@#%+",
"#$+$$%$$%-%:%2;;23==3,65565<2<22,22:66,2<22<2&=*&-&$%*#%@$*#+@#+"
};
